AtkinsonHyperlegibleMono-Regular.sfdir
StartChar: exclam
Encoding: 33 33 254
Width: 632
GlyphClass: 1
Flags: W
LayerCount: 2
Fore
SplineSet
271 496 m 1,0,-1
 271 668 l 1,1,-1
 360 668 l 1,2,-1
 360 496 l 1,3,-1
 342 193 l 1,4,-1
 289 193 l 1,5,-1
 271 496 l 1,0,-1
271.5 6.5 m 128,-1,7
 253 25 253 25 253 51 c 256,8,9
 253 77 253 77 271.5 95.5 c 128,-1,10
 290 114 290 114 316 114 c 256,11,12
 342 114 342 114 360.5 95.5 c 128,-1,13
 379 77 379 77 379 51 c 256,14,15
 379 25 379 25 360.5 6.5 c 128,-1,16
 342 -12 342 -12 316 -12 c 256,17,6
 290 -12 290 -12 271.5 6.5 c 128,-1,7
EndSplineSet
EndChar
StartChar: quotedbl
Encoding: 34 34 284
Width: 632
GlyphClass: 1
Flags: W
LayerCount: 2
Fore
SplineSet
181 668 m 1,0,-1
 268 668 l 1,1,-1
 251 429 l 1,2,-1
 197 429 l 1,3,-1
 181 668 l 1,0,-1
364 668 m 1,4,-1
 451 668 l 1,5,-1
 435 429 l 1,6,-1
 381 429 l 1,7,-1
 364 668 l 1,4,-1
EndSplineSet
EndChar
StartChar: zero
Encoding: 48 48 229
Width: 632
GlyphClass: 1
Flags: W
LayerCount: 2
Fore
SplineSet
122.5 77.5 m 128,-1,1
 53 168 53 168 53 335 c 256,2,3
 53 502 53 502 122.5 592 c 128,-1,4
 192 682 192 682 316 682 c 256,5,6
 440 682 440 682 509.5 592 c 128,-1,7
 579 502 579 502 579 335 c 256,8,9
 579 168 579 168 509.5 77.5 c 128,-1,10
 440 -13 440 -13 316 -13 c 256,11,0
 192 -13 192 -13 122.5 77.5 c 128,-1,1
436 111 m 1,13,-1
 167 503 l 1,14,15
 139 441 139 441 139 335 c 0,16,17
 139 191 139 191 187 123.5 c 128,-1,18
 235 56 235 56 316 56 c 0,19,12
 394 56 394 56 436 111 c 1,13,-1
493 335 m 0,21,22
 493 469 493 469 446 541.5 c 128,-1,23
 399 614 399 614 316 614 c 0,24,25
 242 614 242 614 197 560 c 1,26,-1
 466 169 l 1,27,20
 493 231 493 231 493 335 c 0,21,22
EndSplineSet
Substitution2: "'zero' Slashed Zero in Latin lookup 10 subtable" zero.zero
AlternateSubs2: "'aalt' Access All Alternates in Latin lookup 0 subtable" zero.zero
EndChar
StartChar: one
Encoding: 49 49 230
Width: 632
GlyphClass: 5
Flags: W
LayerCount: 2
Fore
SplineSet
116 72 m 1,0,-1
 287 72 l 1,1,-1
 287 507 l 1,2,-1
 114 507 l 1,3,-1
 114 572 l 1,4,5
 176 572 176 572 212.5 579 c 128,-1,6
 249 586 249 586 273 607 c 128,-1,7
 297 628 297 628 311 668 c 1,8,-1
 371 668 l 1,9,-1
 371 72 l 1,10,-1
 525 72 l 1,11,-1
 525 0 l 1,12,-1
 116 0 l 1,13,-1
 116 72 l 1,0,-1
EndSplineSet
Substitution2: "'sups' Superscript in Latin lookup 6 subtable" uni00B9
AlternateSubs2: "'aalt' Access All Alternates in Latin lookup 0 subtable" uni00B9
EndChar
StartChar: three
Encoding: 51 51 232
Width: 632
GlyphClass: 5
Flags: W
LayerCount: 2
Fore
SplineSet
163 33.5 m 128,-1,1
 105 79 105 79 87 152 c 1,2,-1
 167 174 l 1,3,4
 179 120 179 120 217.5 88.5 c 128,-1,5
 256 57 256 57 320 57 c 0,6,7
 387 57 387 57 429.5 92 c 128,-1,8
 472 127 472 127 472 185 c 0,9,10
 472 252 472 252 423.5 285.5 c 128,-1,11
 375 319 375 319 296 319 c 2,12,-1
 271 319 l 1,13,-1
 271 385 l 1,14,-1
 296 385 l 2,15,16
 361 385 361 385 406.5 414.5 c 128,-1,17
 452 444 452 444 452 506 c 0,18,19
 452 555 452 555 414.5 583 c 128,-1,20
 377 611 377 611 323 611 c 0,21,22
 264 611 264 611 225 580.5 c 128,-1,23
 186 550 186 550 176 499 c 1,24,-1
 97 524 l 1,25,26
 117 593 117 593 177 636.5 c 128,-1,27
 237 680 237 680 325 680 c 0,28,29
 382 680 382 680 430.5 660.5 c 128,-1,30
 479 641 479 641 508 602.5 c 128,-1,31
 537 564 537 564 537 510 c 0,32,33
 537 453 537 453 506.5 411.5 c 128,-1,34
 476 370 476 370 419 354 c 1,35,36
 487 340 487 340 522.5 294.5 c 128,-1,37
 558 249 558 249 558 187 c 0,38,39
 558 124 558 124 525.5 79 c 128,-1,40
 493 34 493 34 438.5 11 c 128,-1,41
 384 -12 384 -12 319 -12 c 0,42,0
 221 -12 221 -12 163 33.5 c 128,-1,1
EndSplineSet
Substitution2: "'sups' Superscript in Latin lookup 6 subtable" uni00B3
AlternateSubs2: "'aalt' Access All Alternates in Latin lookup 0 subtable" uni00B3
EndChar
StartChar: four
Encoding: 52 52 233
Width: 632
GlyphClass: 5
Flags: W
LayerCount: 2
Fore
SplineSet
385 166 m 1,0,-1
 53 166 l 1,1,-1
 53 244 l 1,2,-1
 378 668 l 1,3,-1
 471 668 l 1,4,-1
 471 243 l 1,5,-1
 580 243 l 1,6,-1
 580 166 l 1,7,-1
 471 166 l 1,8,-1
 471 0 l 1,9,-1
 385 0 l 1,10,-1
 385 166 l 1,0,-1
385 243 m 1,11,-1
 385 557 l 1,12,-1
 381 557 l 1,13,-1
 141 243 l 1,14,-1
 385 243 l 1,11,-1
EndSplineSet
EndChar
StartChar: six
Encoding: 54 54 235
Width: 632
GlyphClass: 1
Flags: W
LayerCount: 2
Fore
SplineSet
149 70.5 m 128,-1,1
 87 153 87 153 87 297 c 0,2,3
 87 464 87 464 148.5 572 c 128,-1,4
 210 680 210 680 345 680 c 0,5,6
 416 680 416 680 463 650.5 c 128,-1,7
 510 621 510 621 533 573 c 1,8,-1
 455 544 l 1,9,10
 441 575 441 575 410.5 593.5 c 128,-1,11
 380 612 380 612 340 612 c 0,12,13
 263 612 263 612 218.5 537.5 c 128,-1,14
 174 463 174 463 170 343 c 1,15,16
 192 387 192 387 238.5 414.5 c 128,-1,17
 285 442 285 442 346 442 c 0,18,19
 408 442 408 442 457.5 413.5 c 128,-1,20
 507 385 507 385 534.5 333.5 c 128,-1,21
 562 282 562 282 562 216 c 0,22,23
 562 154 562 154 533 102 c 128,-1,24
 504 50 504 50 450.5 19 c 128,-1,25
 397 -12 397 -12 328 -12 c 0,26,0
 211 -12 211 -12 149 70.5 c 128,-1,1
434.5 99.5 m 128,-1,28
 475 143 475 143 475 213 c 0,29,30
 475 285 475 285 435 329 c 128,-1,31
 395 373 395 373 329 373 c 0,32,33
 261 373 261 373 221 329 c 128,-1,34
 181 285 181 285 181 213 c 0,35,36
 181 143 181 143 221 99.5 c 128,-1,37
 261 56 261 56 328 56 c 0,38,27
 394 56 394 56 434.5 99.5 c 128,-1,28
EndSplineSet
EndChar
StartChar: seven
Encoding: 55 55 236
Width: 632
GlyphClass: 1
Flags: W
LayerCount: 2
Fore
SplineSet
458 593 m 1,0,-1
 91 593 l 1,1,-1
 91 668 l 1,2,-1
 547 668 l 1,3,-1
 547 593 l 1,4,-1
 268 0 l 1,5,-1
 172 0 l 1,6,-1
 458 593 l 1,0,-1
EndSplineSet
EndChar
StartChar: eight
Encoding: 56 56 237
Width: 632
GlyphClass: 1
Flags: W
LayerCount: 2
Fore
SplineSet
188 15 m 128,-1,1
 132 41 132 41 100.5 87 c 128,-1,2
 69 133 69 133 69 192 c 256,3,4
 69 251 69 251 103.5 298 c 128,-1,5
 138 345 138 345 198 369 c 1,6,7
 168 393 168 393 151.5 427 c 128,-1,8
 135 461 135 461 135 502 c 0,9,10
 135 551 135 551 159 592.5 c 128,-1,11
 183 634 183 634 224.5 658 c 128,-1,12
 266 682 266 682 316 682 c 256,13,14
 366 682 366 682 407.5 658 c 128,-1,15
 449 634 449 634 473 592.5 c 128,-1,16
 497 551 497 551 497 502 c 0,17,18
 497 461 497 461 480.5 427 c 128,-1,19
 464 393 464 393 434 369 c 1,20,21
 494 345 494 345 528.5 298 c 128,-1,22
 563 251 563 251 563 192 c 256,23,24
 563 133 563 133 531.5 87 c 128,-1,25
 500 41 500 41 444 15 c 128,-1,26
 388 -11 388 -11 316 -11 c 256,27,0
 244 -11 244 -11 188 15 c 128,-1,1
399.5 79 m 128,-1,29
 436 96 436 96 456 126 c 128,-1,30
 476 156 476 156 476 192 c 0,31,32
 476 248 476 248 431.5 284.5 c 128,-1,33
 387 321 387 321 316 321 c 0,34,35
 244 321 244 321 200 284.5 c 128,-1,36
 156 248 156 248 156 192 c 256,37,38
 156 136 156 136 200 99 c 128,-1,39
 244 62 244 62 316 62 c 0,40,28
 363 62 363 62 399.5 79 c 128,-1,29
392 423.5 m 128,-1,42
 423 455 423 455 423 501 c 0,43,44
 423 546 423 546 392 577 c 128,-1,45
 361 608 361 608 316 608 c 256,46,47
 271 608 271 608 239.5 577 c 128,-1,48
 208 546 208 546 208 501 c 0,49,50
 208 455 208 455 239.5 423.5 c 128,-1,51
 271 392 271 392 316 392 c 256,52,41
 361 392 361 392 392 423.5 c 128,-1,42
EndSplineSet
EndChar
StartChar: nine
Encoding: 57 57 238
Width: 632
GlyphClass: 1
Flags: W
LayerCount: 2
Fore
SplineSet
306 207 m 0,1,2
 248 207 248 207 193.5 236.5 c 128,-1,3
 139 266 139 266 105 320 c 128,-1,4
 71 374 71 374 71 443 c 0,5,6
 71 508 71 508 103 563 c 128,-1,7
 135 618 135 618 189.5 650 c 128,-1,8
 244 682 244 682 309 682 c 256,9,10
 374 682 374 682 429.5 650 c 128,-1,11
 485 618 485 618 517 563 c 128,-1,12
 549 508 549 508 549 443 c 0,13,14
 549 399 549 399 535.5 363.5 c 128,-1,15
 522 328 522 328 490 273 c 2,16,-1
 330 0 l 1,17,-1
 239 0 l 1,18,-1
 372 218 l 1,19,0
 339 207 339 207 306 207 c 0,1,2
390.5 303.5 m 128,-1,21
 427 325 427 325 448.5 362 c 128,-1,22
 470 399 470 399 470 443 c 0,23,24
 470 485 470 485 449 522 c 128,-1,25
 428 559 428 559 391.5 581 c 128,-1,26
 355 603 355 603 310 603 c 256,27,28
 265 603 265 603 228.5 581.5 c 128,-1,29
 192 560 192 560 171 523 c 128,-1,30
 150 486 150 486 150 443 c 0,31,32
 150 398 150 398 172 361.5 c 128,-1,33
 194 325 194 325 231 303.5 c 128,-1,34
 268 282 268 282 311 282 c 256,35,20
 354 282 354 282 390.5 303.5 c 128,-1,21
EndSplineSet
EndChar
StartChar: greater
Encoding: 62 62 317
Width: 632
GlyphClass: 1
Flags: W
LayerCount: 2
Fore
SplineSet
80 88 m 1,0,-1
 450 248 l 1,1,-1
 80 408 l 1,2,-1
 80 494 l 1,3,-1
 552 280 l 1,4,-1
 552 216 l 1,5,-1
 80 3 l 1,6,-1
 80 88 l 1,0,-1
EndSplineSet
EndChar
StartChar: at
Encoding: 64 64 288
Width: 632
GlyphClass: 1
Flags: W
LayerCount: 2
Fore
SplineSet
169 -54.5 m 128,-1,1
 98 -13 98 -13 56 66.5 c 128,-1,2
 14 146 14 146 14 255 c 0,3,4
 14 358 14 358 53.5 437 c 128,-1,5
 93 516 93 516 163 560 c 128,-1,6
 233 604 233 604 322 604 c 0,7,8
 398 604 398 604 465.5 569.5 c 128,-1,9
 533 535 533 535 575.5 463 c 128,-1,10
 618 391 618 391 618 286 c 0,11,12
 618 215 618 215 599 168 c 128,-1,13
 580 121 580 121 549.5 98.5 c 128,-1,14
 519 76 519 76 485 76 c 0,15,16
 455 76 455 76 431 93 c 128,-1,17
 407 110 407 110 396 136 c 1,18,19
 378 104 378 104 349.5 89.5 c 128,-1,20
 321 75 321 75 289 75 c 256,21,22
 257 75 257 75 227.5 94 c 128,-1,23
 198 113 198 113 179.5 150 c 128,-1,24
 161 187 161 187 161 238 c 0,25,26
 161 341 161 341 211.5 390 c 128,-1,27
 262 439 262 439 336 439 c 0,28,29
 388 439 388 439 445 419 c 1,30,-1
 445 200 l 2,31,32
 445 164 445 164 458.5 148 c 128,-1,33
 472 132 472 132 493 132 c 0,34,35
 527 132 527 132 545 178 c 128,-1,36
 563 224 563 224 563 288 c 0,37,38
 563 367 563 367 533 426 c 128,-1,39
 503 485 503 485 448.5 517.5 c 128,-1,40
 394 550 394 550 322 550 c 0,41,42
 248 550 248 550 191.5 514 c 128,-1,43
 135 478 135 478 103.5 411 c 128,-1,44
 72 344 72 344 72 255 c 0,45,46
 72 161 72 161 105 94 c 128,-1,47
 138 27 138 27 195 -7.5 c 128,-1,48
 252 -42 252 -42 323 -42 c 0,49,50
 385 -42 385 -42 442 -6 c 1,51,-1
 442 -68 l 1,52,53
 386 -96 386 -96 325 -96 c 0,54,0
 240 -96 240 -96 169 -54.5 c 128,-1,1
358.5 162.5 m 128,-1,56
 384 192 384 192 384 236 c 2,57,-1
 384 375 l 1,58,59
 365 381 365 381 336 381 c 0,60,61
 291 381 291 381 258 349 c 128,-1,62
 225 317 225 317 225 239 c 0,63,64
 225 189 225 189 247 161 c 128,-1,65
 269 133 269 133 300 133 c 0,66,55
 333 133 333 133 358.5 162.5 c 128,-1,56
EndSplineSet
EndChar
StartChar: C
Encoding: 67 67 14
Width: 632
GlyphClass: 2
Flags: W
AnchorPoint: "Anchor-1" 338 668 basechar 0
AnchorPoint: "Anchor-0" 335 0 basechar 0
LayerCount: 2
Fore
SplineSet
187 32 m 128,-1,1
 123 76 123 76 88 155 c 128,-1,2
 53 234 53 234 53 335 c 256,3,4
 53 436 53 436 89.5 514.5 c 128,-1,5
 126 593 126 593 191 636.5 c 128,-1,6
 256 680 256 680 340 680 c 0,7,8
 417 680 417 680 480 640.5 c 128,-1,9
 543 601 543 601 575 528 c 1,10,-1
 502 500 l 1,11,12
 480 550 480 550 439 578.5 c 128,-1,13
 398 607 398 607 340 607 c 0,14,15
 285 607 285 607 240 575.5 c 128,-1,16
 195 544 195 544 168 482 c 128,-1,17
 141 420 141 420 141 335 c 0,18,19
 141 249 141 249 168 187 c 128,-1,20
 195 125 195 125 241 93 c 128,-1,21
 287 61 287 61 342 61 c 0,22,23
 399 61 399 61 441 89.5 c 128,-1,24
 483 118 483 118 506 167 c 1,25,-1
 578 140 l 1,26,27
 543 65 543 65 480.5 26.5 c 128,-1,28
 418 -12 418 -12 335 -12 c 0,29,0
 251 -12 251 -12 187 32 c 128,-1,1
EndSplineSet
EndChar
StartChar: E
Encoding: 69 69 23
Width: 632
GlyphClass: 2
Flags: W
AnchorPoint: "Anchor-2" 545 10 basechar 0
AnchorPoint: "Anchor-1" 335 668 basechar 0
AnchorPoint: "Anchor-0" 317 0 basechar 0
LayerCount: 2
Fore
SplineSet
123 668 m 1,0,-1
 541 668 l 1,1,-1
 541 591 l 1,2,-1
 211 591 l 1,3,-1
 211 382 l 1,4,-1
 459 382 l 1,5,-1
 459 306 l 1,6,-1
 211 306 l 1,7,-1
 211 77 l 1,8,-1
 545 77 l 1,9,-1
 545 0 l 1,10,-1
 123 0 l 1,11,-1
 123 668 l 1,0,-1
EndSplineSet
EndChar
StartChar: F
Encoding: 70 70 32
Width: 632
GlyphClass: 2
Flags: W
AnchorPoint: "Anchor-1" 310 668 basechar 0
AnchorPoint: "Anchor-0" 310 0 basechar 0
LayerCount: 2
Fore
SplineSet
125 668 m 1,0,-1
 545 668 l 1,1,-1
 545 591 l 1,2,-1
 213 591 l 1,3,-1
 213 372 l 1,4,-1
 541 372 l 1,5,-1
 541 295 l 1,6,-1
 213 295 l 1,7,-1
 213 0 l 1,8,-1
 125 0 l 1,9,-1
 125 668 l 1,0,-1
EndSplineSet
EndChar
StartChar: G
Encoding: 71 71 33
Width: 632
GlyphClass: 2
Flags: W
AnchorPoint: "Anchor-1" 319 668 basechar 0
AnchorPoint: "Anchor-0" 319 0 basechar 0
LayerCount: 2
Fore
SplineSet
169.5 32 m 128,-1,1
 107 76 107 76 73.5 154.5 c 128,-1,2
 40 233 40 233 40 335 c 0,3,4
 40 438 40 438 75 516 c 128,-1,5
 110 594 110 594 174.5 637 c 128,-1,6
 239 680 239 680 325 680 c 0,7,8
 404 680 404 680 466 640.5 c 128,-1,9
 528 601 528 601 558 526 c 1,10,-1
 485 499 l 1,11,12
 465 550 465 550 424 578.5 c 128,-1,13
 383 607 383 607 324 607 c 0,14,15
 268 607 268 607 223 576 c 128,-1,16
 178 545 178 545 152 483.5 c 128,-1,17
 126 422 126 422 126 335 c 0,18,19
 126 250 126 250 151.5 188 c 128,-1,20
 177 126 177 126 222.5 93.5 c 128,-1,21
 268 61 268 61 326 61 c 0,22,23
 366 61 366 61 406 78.5 c 128,-1,24
 446 96 446 96 473.5 137.5 c 128,-1,25
 501 179 501 179 501 248 c 2,26,-1
 501 273 l 1,27,-1
 324 273 l 1,28,-1
 324 343 l 1,29,-1
 579 343 l 1,30,-1
 579 0 l 1,31,-1
 524 0 l 1,32,-1
 508 90 l 1,33,34
 478 40 478 40 425 14 c 128,-1,35
 372 -12 372 -12 317 -12 c 0,36,0
 232 -12 232 -12 169.5 32 c 128,-1,1
EndSplineSet
EndChar
StartChar: H
Encoding: 72 72 37
Width: 632
GlyphClass: 2
Flags: W
AnchorPoint: "Anchor-1" 316 668 basechar 0
AnchorPoint: "Anchor-0" 316 0 basechar 0
LayerCount: 2
Fore
SplineSet
61 668 m 1,0,-1
 149 668 l 1,1,-1
 149 383 l 1,2,-1
 483 383 l 1,3,-1
 483 668 l 1,4,-1
 571 668 l 1,5,-1
 571 0 l 1,6,-1
 483 0 l 1,7,-1
 483 306 l 1,8,-1
 149 306 l 1,9,-1
 149 0 l 1,10,-1
 61 0 l 1,11,-1
 61 668 l 1,0,-1
EndSplineSet
EndChar
StartChar: R
Encoding: 82 82 74
Width: 632
GlyphClass: 2
Flags: W
AnchorPoint: "Anchor-1" 293 668 basechar 0
AnchorPoint: "Anchor-0" 313 0 basechar 0
LayerCount: 2
Fore
SplineSet
99 668 m 1,0,-1
 321 668 l 2,1,2
 428 668 428 668 492 619 c 128,-1,3
 556 570 556 570 556 473 c 0,4,5
 556 390 556 390 507 343 c 128,-1,6
 458 296 458 296 373 286 c 1,7,-1
 573 0 l 1,8,-1
 471 0 l 1,9,-1
 283 278 l 1,10,-1
 183 278 l 1,11,-1
 183 0 l 1,12,-1
 99 0 l 1,13,-1
 99 668 l 1,0,-1
428 380 m 128,-1,15
 469 410 469 410 469 473 c 256,16,17
 469 536 469 536 428 566 c 128,-1,18
 387 596 387 596 318 596 c 2,19,-1
 183 596 l 1,20,-1
 183 350 l 1,21,-1
 318 350 l 2,22,14
 387 350 387 350 428 380 c 128,-1,15
EndSplineSet
EndChar
StartChar: S
Encoding: 83 83 77
Width: 632
GlyphClass: 2
Flags: W
AnchorPoint: "Anchor-1" 316 668 basechar 0
AnchorPoint: "Anchor-0" 316 0 basechar 0
LayerCount: 2
Fore
SplineSet
159 28.5 m 128,-1,1
 88 69 88 69 63 145 c 1,2,-1
 146 176 l 1,3,4
 162 120 162 120 209.5 90.5 c 128,-1,5
 257 61 257 61 318 61 c 0,6,7
 388 61 388 61 434 93.5 c 128,-1,8
 480 126 480 126 480 186 c 0,9,10
 480 229 480 229 448.5 255 c 128,-1,11
 417 281 417 281 340 299 c 2,12,-1
 257 319 l 2,13,14
 175 338 175 338 127 379.5 c 128,-1,15
 79 421 79 421 79 495 c 0,16,17
 79 548 79 548 110.5 590.5 c 128,-1,18
 142 633 142 633 196.5 656.5 c 128,-1,19
 251 680 251 680 318 680 c 0,20,21
 392 680 392 680 454 649 c 128,-1,22
 516 618 516 618 545 556 c 1,23,-1
 463 525 l 1,24,25
 444 564 444 564 402.5 585.5 c 128,-1,26
 361 607 361 607 315 607 c 0,27,28
 252 607 252 607 210 578.5 c 128,-1,29
 168 550 168 550 168 497 c 0,30,31
 168 459 168 459 197.5 434.5 c 128,-1,32
 227 410 227 410 276 399 c 2,33,-1
 363 377 l 2,34,35
 465 353 465 353 517 311.5 c 128,-1,36
 569 270 569 270 569 190 c 0,37,38
 569 130 569 130 534.5 84 c 128,-1,39
 500 38 500 38 442 13 c 128,-1,40
 384 -12 384 -12 316 -12 c 0,41,0
 230 -12 230 -12 159 28.5 c 128,-1,1
EndSplineSet
EndChar
StartChar: V
Encoding: 86 86 96
Width: 632
GlyphClass: 2
Flags: W
AnchorPoint: "Anchor-1" 317 668 basechar 0
AnchorPoint: "Anchor-0" 317 0 basechar 0
LayerCount: 2
Fore
SplineSet
44 668 m 1,0,-1
 132 668 l 1,1,-1
 315 98 l 1,2,-1
 319 98 l 1,3,-1
 503 668 l 1,4,-1
 588 668 l 1,5,-1
 362 0 l 1,6,-1
 269 0 l 1,7,-1
 44 668 l 1,0,-1
EndSplineSet
EndChar
StartChar: W
Encoding: 87 87 97
Width: 632
GlyphClass: 2
Flags: W
AnchorPoint: "Anchor-1" 317 668 basechar 0
AnchorPoint: "Anchor-0" 318 0 basechar 0
LayerCount: 2
Fore
SplineSet
11 668 m 1,0,-1
 88 668 l 1,1,-1
 175 113 l 1,2,-1
 179 113 l 1,3,-1
 275 668 l 1,4,-1
 360 668 l 1,5,-1
 455 113 l 1,6,-1
 459 113 l 1,7,-1
 546 668 l 1,8,-1
 621 668 l 1,9,-1
 503 0 l 1,10,-1
 410 0 l 1,11,-1
 319 538 l 1,12,-1
 315 538 l 1,13,-1
 223 0 l 1,14,-1
 130 0 l 1,15,-1
 11 668 l 1,0,-1
EndSplineSet
EndChar
StartChar: bracketleft
Encoding: 91 91 272
Width: 632
GlyphClass: 1
Flags: W
LayerCount: 2
Fore
SplineSet
198 708 m 1,0,-1
 475 708 l 1,1,-1
 475 644 l 1,2,-1
 276 644 l 1,3,-1
 276 -98 l 1,4,-1
 475 -98 l 1,5,-1
 475 -162 l 1,6,-1
 198 -162 l 1,7,-1
 198 708 l 1,0,-1
EndSplineSet
EndChar
StartChar: backslash
Encoding: 92 92 263
Width: 632
GlyphClass: 1
Flags: W
LayerCount: 2
Fore
SplineSet
492 -90 m 1,0,-1
 54 708 l 1,1,-1
 140 708 l 1,2,-1
 578 -90 l 1,3,-1
 492 -90 l 1,0,-1
EndSplineSet
EndChar
StartChar: bracketright
Encoding: 93 93 273
Width: 632
GlyphClass: 1
Flags: W
LayerCount: 2
Fore
SplineSet
157 -98 m 1,0,-1
 356 -98 l 1,1,-1
 356 644 l 1,2,-1
 157 644 l 1,3,-1
 157 708 l 1,4,-1
 434 708 l 1,5,-1
 434 -162 l 1,6,-1
 157 -162 l 1,7,-1
 157 -98 l 1,0,-1
EndSplineSet
EndChar
StartChar: n
Encoding: 110 110 168
Width: 632
GlyphClass: 2
Flags: W
AnchorPoint: "Anchor-1" 316 496 basechar 0
AnchorPoint: "Anchor-0" 312 0 basechar 0
LayerCount: 2
Fore
SplineSet
103 496 m 1,0,-1
 173 496 l 1,1,-1
 187 421 l 1,2,3
 207 454 207 454 250.5 480.5 c 128,-1,4
 294 507 294 507 354 507 c 0,5,6
 444 507 444 507 488 458 c 128,-1,7
 532 409 532 409 532 325 c 2,8,-1
 532 0 l 1,9,-1
 446 0 l 1,10,-1
 446 303 l 2,11,12
 446 366 446 366 418.5 401.5 c 128,-1,13
 391 437 391 437 331 437 c 0,14,15
 265 437 265 437 226.5 392.5 c 128,-1,16
 188 348 188 348 188 267 c 2,17,-1
 188 0 l 1,18,-1
 103 0 l 1,19,-1
 103 496 l 1,0,-1
EndSplineSet
EndChar
StartChar: r
Encoding: 114 114 185
Width: 632
GlyphClass: 2
Flags: W
AnchorPoint: "Anchor-1" 319 496 basechar 0
AnchorPoint: "Anchor-0" 190 0 basechar 0
LayerCount: 2
Fore
SplineSet
148 496 m 1,0,-1
 213 496 l 1,1,-1
 232 381 l 1,2,3
 266 442 266 442 326 473.5 c 128,-1,4
 386 505 386 505 458 505 c 0,5,6
 499 505 499 505 537 496 c 1,7,-1
 537 408 l 1,8,9
 487 423 487 423 440 423 c 0,10,11
 347 423 347 423 290 367.5 c 128,-1,12
 233 312 233 312 233 207 c 2,13,-1
 233 0 l 1,14,-1
 148 0 l 1,15,-1
 148 496 l 1,0,-1
EndSplineSet
EndChar
StartChar: v
Encoding: 118 118 207
Width: 632
GlyphClass: 2
Flags: W
AnchorPoint: "Anchor-1" 317 496 basechar 0
AnchorPoint: "Anchor-0" 317 0 basechar 0
LayerCount: 2
Fore
SplineSet
60 496 m 1,0,-1
 150 496 l 1,1,-1
 316 99 l 1,2,-1
 320 99 l 1,3,-1
 483 496 l 1,4,-1
 572 496 l 1,5,-1
 357 0 l 1,6,-1
 274 0 l 1,7,-1
 60 496 l 1,0,-1
EndSplineSet
EndChar
StartChar: x
Encoding: 120 120 213
Width: 632
GlyphClass: 2
Flags: W
AnchorPoint: "Anchor-1" 317 496 basechar 0
AnchorPoint: "Anchor-0" 317 0 basechar 0
LayerCount: 2
Fore
SplineSet
265 255 m 1,0,-1
 77 496 l 1,1,-1
 174 496 l 1,2,-1
 314 315 l 1,3,-1
 318 315 l 1,4,-1
 460 496 l 1,5,-1
 556 496 l 1,6,-1
 368 254 l 1,7,-1
 565 0 l 1,8,-1
 468 0 l 1,9,-1
 317 194 l 1,10,-1
 313 194 l 1,11,-1
 163 0 l 1,12,-1
 67 0 l 1,13,-1
 265 255 l 1,0,-1
EndSplineSet
EndChar
StartChar: y
Encoding: 121 121 214
Width: 632
GlyphClass: 2
Flags: W
AnchorPoint: "Anchor-1" 316 496 basechar 0
AnchorPoint: "Anchor-0" 314 0 basechar 0
LayerCount: 2
Fore
SplineSet
91 -94 m 1,0,-1
 167 -94 l 2,1,2
 204 -94 204 -94 220 -84.5 c 128,-1,3
 236 -75 236 -75 250 -45 c 2,4,-1
 275 9 l 1,5,-1
 60 496 l 1,6,-1
 152 496 l 1,7,-1
 316 108 l 1,8,-1
 320 108 l 1,9,-1
 480 496 l 1,10,-1
 572 496 l 1,11,-1
 327 -53 l 2,12,13
 308 -97 308 -97 292 -119 c 128,-1,14
 276 -141 276 -141 248.5 -151.5 c 128,-1,15
 221 -162 221 -162 173 -162 c 2,16,-1
 91 -162 l 1,17,-1
 91 -94 l 1,0,-1
EndSplineSet
EndChar
StartChar: bar
Encoding: 124 124 296
Width: 632
GlyphClass: 1
Flags: W
LayerCount: 2
Fore
SplineSet
274 838 m 1,0,-1
 358 838 l 1,1,-1
 358 -162 l 1,2,-1
 274 -162 l 1,3,-1
 274 838 l 1,0,-1
EndSplineSet
EndChar
StartChar: braceright
Encoding: 125 125 271
Width: 632
GlyphClass: 1
Flags: W
LayerCount: 2
Fore
SplineSet
154 -95 m 1,0,-1
 274 -95 l 2,1,2
 301 -95 301 -95 311 -86 c 128,-1,3
 321 -77 321 -77 321 -54 c 2,4,-1
 321 141 l 2,5,6
 321 201 321 201 338.5 229.5 c 128,-1,7
 356 258 356 258 396 270 c 1,8,-1
 396 276 l 1,9,10
 356 288 356 288 338.5 316.5 c 128,-1,11
 321 345 321 345 321 405 c 2,12,-1
 321 600 l 2,13,14
 321 623 321 623 311 632 c 128,-1,15
 301 641 301 641 274 641 c 2,16,-1
 154 641 l 1,17,-1
 154 708 l 1,18,-1
 280 708 l 2,19,20
 330 708 330 708 356.5 696.5 c 128,-1,21
 383 685 383 685 393 660.5 c 128,-1,22
 403 636 403 636 403 594 c 2,23,-1
 403 401 l 2,24,25
 403 365 403 365 410.5 345.5 c 128,-1,26
 418 326 418 326 438 317.5 c 128,-1,27
 458 309 458 309 496 307 c 1,28,-1
 496 239 l 1,29,30
 458 237 458 237 438 228.5 c 128,-1,31
 418 220 418 220 410.5 200.5 c 128,-1,32
 403 181 403 181 403 145 c 2,33,-1
 403 -48 l 2,34,35
 403 -90 403 -90 393 -114.5 c 128,-1,36
 383 -139 383 -139 356.5 -150.5 c 128,-1,37
 330 -162 330 -162 280 -162 c 2,38,-1
 154 -162 l 1,39,-1
 154 -95 l 1,0,-1
EndSplineSet
EndChar
StartChar: exclamdown
Encoding: 161 161 255
Width: 632
GlyphClass: 1
Flags: W
LayerCount: 2
Fore
SplineSet
271 2 m 1,0,-1
 289 305 l 1,1,-1
 342 305 l 1,2,-1
 360 2 l 1,3,-1
 360 -170 l 1,4,-1
 271 -170 l 1,5,-1
 271 2 l 1,0,-1
271.5 402.5 m 128,-1,7
 253 421 253 421 253 447 c 256,8,9
 253 473 253 473 271.5 491.5 c 128,-1,10
 290 510 290 510 316 510 c 256,11,12
 342 510 342 510 360.5 491.5 c 128,-1,13
 379 473 379 473 379 447 c 256,14,15
 379 421 379 421 360.5 402.5 c 128,-1,16
 342 384 342 384 316 384 c 256,17,6
 290 384 290 384 271.5 402.5 c 128,-1,7
EndSplineSet
EndChar
StartChar: currency
Encoding: 164 164 303
Width: 632
GlyphClass: 1
Flags: W
LayerCount: 2
Fore
SplineSet
79 119 m 1,0,-1
 145 185 l 1,1,2
 98 245 98 245 98 321 c 256,3,4
 98 397 98 397 145 457 c 1,5,-1
 79 522 l 1,6,-1
 115 557 l 1,7,-1
 181 492 l 1,8,9
 209 514 209 514 244 526 c 128,-1,10
 279 538 279 538 316 538 c 256,11,12
 353 538 353 538 388 526 c 128,-1,13
 423 514 423 514 451 492 c 1,14,-1
 517 557 l 1,15,-1
 553 522 l 1,16,-1
 487 457 l 1,17,18
 534 397 534 397 534 321 c 256,19,20
 534 245 534 245 487 185 c 1,21,-1
 553 119 l 1,22,-1
 517 85 l 1,23,-1
 451 150 l 1,24,25
 423 127 423 127 388 115 c 128,-1,26
 353 103 353 103 316 103 c 256,27,28
 279 103 279 103 244 115 c 128,-1,29
 209 127 209 127 181 150 c 1,30,-1
 115 85 l 1,31,-1
 79 119 l 1,0,-1
388 195.5 m 128,-1,33
 421 215 421 215 440.5 248.5 c 128,-1,34
 460 282 460 282 460 321 c 256,35,36
 460 360 460 360 440.5 393.5 c 128,-1,37
 421 427 421 427 388 446.5 c 128,-1,38
 355 466 355 466 316 466 c 256,39,40
 277 466 277 466 244 446.5 c 128,-1,41
 211 427 211 427 191.5 393.5 c 128,-1,42
 172 360 172 360 172 321 c 256,43,44
 172 282 172 282 191.5 248.5 c 128,-1,45
 211 215 211 215 244 195.5 c 128,-1,46
 277 176 277 176 316 176 c 256,47,32
 355 176 355 176 388 195.5 c 128,-1,33
EndSplineSet
EndChar
StartChar: copyright
Encoding: 169 169 292
Width: 632
GlyphClass: 1
Flags: W
LayerCount: 2
Fore
SplineSet
162.5 33.5 m 128,-1,1
 95 80 95 80 57.5 159 c 128,-1,2
 20 238 20 238 20 334 c 0,3,4
 20 429 20 429 57.5 508.5 c 128,-1,5
 95 588 95 588 162.5 634 c 128,-1,6
 230 680 230 680 316 680 c 256,7,8
 402 680 402 680 469.5 634 c 128,-1,9
 537 588 537 588 574.5 508.5 c 128,-1,10
 612 429 612 429 612 334 c 0,11,12
 612 238 612 238 574.5 159 c 128,-1,13
 537 80 537 80 469.5 33.5 c 128,-1,14
 402 -13 402 -13 316 -13 c 256,15,0
 230 -13 230 -13 162.5 33.5 c 128,-1,1
206.5 194.5 m 128,-1,17
 165 246 165 246 165 335 c 256,18,19
 165 424 165 424 208 475 c 128,-1,20
 251 526 251 526 320 526 c 0,21,22
 365 526 365 526 396.5 503 c 128,-1,23
 428 480 428 480 445 441 c 1,24,-1
 386 417 l 1,25,26
 365 468 365 468 320 468 c 0,27,28
 283 468 283 468 258.5 434 c 128,-1,29
 234 400 234 400 234 335 c 0,30,31
 234 271 234 271 259 236 c 128,-1,32
 284 201 284 201 319 201 c 0,33,34
 345 201 345 201 361.5 212 c 128,-1,35
 378 223 378 223 389 249 c 1,36,-1
 447 225 l 1,37,38
 428 189 428 189 396.5 166 c 128,-1,39
 365 143 365 143 319 143 c 0,40,16
 248 143 248 143 206.5 194.5 c 128,-1,17
442 77 m 128,-1,42
 497 116 497 116 527.5 183.5 c 128,-1,43
 558 251 558 251 558 334 c 0,44,45
 558 416 558 416 527.5 483.5 c 128,-1,46
 497 551 497 551 441.5 590 c 128,-1,47
 386 629 386 629 316 629 c 256,48,49
 246 629 246 629 190.5 590 c 128,-1,50
 135 551 135 551 104.5 483.5 c 128,-1,51
 74 416 74 416 74 334 c 0,52,53
 74 251 74 251 104.5 183.5 c 128,-1,54
 135 116 135 116 190 77 c 128,-1,55
 245 38 245 38 316 38 c 256,56,41
 387 38 387 38 442 77 c 128,-1,42
EndSplineSet
EndChar
StartChar: ordfeminine
Encoding: 170 170 223
Width: 632
GlyphClass: 1
Flags: W
LayerCount: 2
Fore
SplineSet
191.5 360 m 128,-1,1
 161 385 161 385 161 431 c 0,2,3
 161 489 161 489 216 517 c 128,-1,4
 271 545 271 545 391 553 c 1,5,6
 391 593 391 593 376.5 617 c 128,-1,7
 362 641 362 641 315 641 c 0,8,9
 285 641 285 641 263.5 628 c 128,-1,10
 242 615 242 615 235 592 c 1,11,-1
 176 608 l 1,12,13
 189 646 189 646 227.5 669.5 c 128,-1,14
 266 693 266 693 319 693 c 0,15,16
 455 693 455 693 455 549 c 2,17,-1
 455 455 l 2,18,19
 455 413 455 413 458 388.5 c 128,-1,20
 461 364 461 364 469 343 c 1,21,-1
 408 343 l 1,22,-1
 394 391 l 1,23,24
 358 335 358 335 276 335 c 0,25,0
 222 335 222 335 191.5 360 c 128,-1,1
364 414 m 128,-1,27
 391 443 391 443 391 485 c 2,28,-1
 391 505 l 1,29,30
 302 501 302 501 266 484 c 128,-1,31
 230 467 230 467 230 432 c 0,32,33
 230 408 230 408 244.5 396.5 c 128,-1,34
 259 385 259 385 290 385 c 0,35,26
 337 385 337 385 364 414 c 128,-1,27
EndSplineSet
EndChar
StartChar: guillemotleft
Encoding: 171 171 280
Width: 632
GlyphClass: 1
Flags: W
LayerCount: 2
Fore
SplineSet
298 250 m 1,0,-1
 446 460 l 1,1,-1
 542 460 l 1,2,-1
 394 250 l 1,3,-1
 542 40 l 1,4,-1
 446 40 l 1,5,-1
 298 250 l 1,0,-1
90 250 m 1,6,-1
 238 460 l 1,7,-1
 334 460 l 1,8,-1
 186 250 l 1,9,-1
 334 40 l 1,10,-1
 238 40 l 1,11,-1
 90 250 l 1,6,-1
EndSplineSet
EndChar
StartChar: registered
Encoding: 174 174 293
Width: 632
GlyphClass: 1
Flags: W
LayerCount: 2
Fore
SplineSet
162.5 33.5 m 128,-1,1
 95 80 95 80 57.5 159 c 128,-1,2
 20 238 20 238 20 334 c 0,3,4
 20 429 20 429 57.5 508.5 c 128,-1,5
 95 588 95 588 162.5 634 c 128,-1,6
 230 680 230 680 316 680 c 256,7,8
 402 680 402 680 469.5 634 c 128,-1,9
 537 588 537 588 574.5 508.5 c 128,-1,10
 612 429 612 429 612 334 c 0,11,12
 612 238 612 238 574.5 159 c 128,-1,13
 537 80 537 80 469.5 33.5 c 128,-1,14
 402 -13 402 -13 316 -13 c 256,15,0
 230 -13 230 -13 162.5 33.5 c 128,-1,1
442 77 m 128,-1,17
 497 116 497 116 527.5 183.5 c 128,-1,18
 558 251 558 251 558 334 c 0,19,20
 558 416 558 416 527.5 483.5 c 128,-1,21
 497 551 497 551 441.5 590 c 128,-1,22
 386 629 386 629 316 629 c 256,23,24
 246 629 246 629 190.5 590 c 128,-1,25
 135 551 135 551 104.5 483.5 c 128,-1,26
 74 416 74 416 74 334 c 0,27,28
 74 251 74 251 104.5 183.5 c 128,-1,29
 135 116 135 116 190 77 c 128,-1,30
 245 38 245 38 316 38 c 256,31,16
 387 38 387 38 442 77 c 128,-1,17
199 529 m 1,32,-1
 316 529 l 2,33,34
 377 529 377 529 411.5 500 c 128,-1,35
 446 471 446 471 446 416 c 0,36,37
 446 380 446 380 427.5 352 c 128,-1,38
 409 324 409 324 370 311 c 1,39,-1
 463 162 l 1,40,-1
 391 162 l 1,41,-1
 306 301 l 1,42,-1
 262 301 l 1,43,-1
 262 162 l 1,44,-1
 199 162 l 1,45,-1
 199 529 l 1,32,-1
380 416 m 0,47,48
 380 448 380 448 362 461.5 c 128,-1,49
 344 475 344 475 309 475 c 2,50,-1
 262 475 l 1,51,-1
 262 356 l 1,52,-1
 313 356 l 2,53,46
 380 356 380 356 380 416 c 0,47,48
EndSplineSet
EndChar
StartChar: degree
Encoding: 176 176 295
Width: 632
GlyphClass: 1
Flags: W
LayerCount: 2
Fore
SplineSet
249 429 m 128,-1,1
 218 447 218 447 199.5 478 c 128,-1,2
 181 509 181 509 181 545 c 0,3,4
 181 582 181 582 199.5 613 c 128,-1,5
 218 644 218 644 249 662 c 128,-1,6
 280 680 280 680 316 680 c 256,7,8
 352 680 352 680 383 662 c 128,-1,9
 414 644 414 644 432.5 613 c 128,-1,10
 451 582 451 582 451 545 c 0,11,12
 451 509 451 509 432.5 478 c 128,-1,13
 414 447 414 447 383 429 c 128,-1,14
 352 411 352 411 316 411 c 256,15,0
 280 411 280 411 249 429 c 128,-1,1
370.5 490.5 m 128,-1,17
 393 513 393 513 393 545 c 0,18,19
 393 578 393 578 370.5 600 c 128,-1,20
 348 622 348 622 316 622 c 256,21,22
 284 622 284 622 261.5 600 c 128,-1,23
 239 578 239 578 239 545 c 0,24,25
 239 514 239 514 262 491 c 128,-1,26
 285 468 285 468 316 468 c 0,27,16
 348 468 348 468 370.5 490.5 c 128,-1,17
EndSplineSet
EndChar
StartChar: uni00B3
Encoding: 179 179 246
Width: 632
GlyphClass: 1
Flags: W
LayerCount: 2
Fore
SplineSet
218.5 384.5 m 128,-1,1
 181 412 181 412 168 457 c 1,2,-1
 228 473 l 1,3,4
 237 444 237 444 258 426.5 c 128,-1,5
 279 409 279 409 313 409 c 0,6,7
 349 409 349 409 373.5 427.5 c 128,-1,8
 398 446 398 446 398 479 c 0,9,10
 398 555 398 555 299 555 c 0,11,12
 281 555 281 555 272 554 c 1,13,-1
 272 607 l 1,14,15
 280 606 280 606 295 606 c 0,16,17
 388 606 388 606 388 674 c 0,18,19
 388 704 388 704 367 719 c 128,-1,20
 346 734 346 734 316 734 c 0,21,22
 249 734 249 734 233 674 c 1,23,-1
 173 690 l 1,24,25
 186 734 186 734 224.5 760 c 128,-1,26
 263 786 263 786 320 786 c 0,27,28
 374 786 374 786 415 758 c 128,-1,29
 456 730 456 730 456 675 c 0,30,31
 456 646 456 646 439.5 622 c 128,-1,32
 423 598 423 598 396 583 c 1,33,34
 429 569 429 569 447 541.5 c 128,-1,35
 465 514 465 514 465 483 c 0,36,37
 465 422 465 422 421.5 389.5 c 128,-1,38
 378 357 378 357 314 357 c 0,39,0
 256 357 256 357 218.5 384.5 c 128,-1,1
EndSplineSet
EndChar
StartChar: ordmasculine
Encoding: 186 186 224
Width: 632
GlyphClass: 1
Flags: W
LayerCount: 2
Fore
SplineSet
233.5 355 m 128,-1,1
 196 375 196 375 173.5 415.5 c 128,-1,2
 151 456 151 456 151 514 c 256,3,4
 151 572 151 572 173.5 612.5 c 128,-1,5
 196 653 196 653 233.5 673 c 128,-1,6
 271 693 271 693 316 693 c 0,7,8
 360 693 360 693 397.5 673 c 128,-1,9
 435 653 435 653 458 612.5 c 128,-1,10
 481 572 481 572 481 514 c 256,11,12
 481 456 481 456 458 415.5 c 128,-1,13
 435 375 435 375 397.5 355 c 128,-1,14
 360 335 360 335 316 335 c 0,15,0
 271 335 271 335 233.5 355 c 128,-1,1
385.5 423.5 m 128,-1,17
 412 457 412 457 412 514 c 256,18,19
 412 571 412 571 385.5 605 c 128,-1,20
 359 639 359 639 316 639 c 256,21,22
 273 639 273 639 246.5 605 c 128,-1,23
 220 571 220 571 220 514 c 256,24,25
 220 457 220 457 246.5 423.5 c 128,-1,26
 273 390 273 390 316 390 c 256,27,16
 359 390 359 390 385.5 423.5 c 128,-1,17
EndSplineSet
EndChar
StartChar: onehalf
Encoding: 189 189 241
Width: 632
GlyphClass: 3
Flags: W
LayerCount: 2
Fore
SplineSet
118 580 m 1,0,-1
 50 580 l 1,1,-1
 50 629 l 1,2,3
 84 628 84 628 103.5 637 c 128,-1,4
 123 646 123 646 130 668 c 1,5,-1
 182 668 l 1,6,-1
 182 363 l 1,7,-1
 118 363 l 1,8,-1
 118 580 l 1,0,-1
437 668 m 1,9,-1
 508 668 l 1,10,-1
 143 0 l 1,11,-1
 72 0 l 1,12,-1
 437 668 l 1,9,-1
448 125.5 m 128,-1,14
 481 153 481 153 497 175 c 128,-1,15
 513 197 513 197 513 218 c 0,16,17
 513 238 513 238 501 249 c 128,-1,18
 489 260 489 260 468 260 c 0,19,20
 449 260 449 260 435.5 249.5 c 128,-1,21
 422 239 422 239 418 218 c 1,22,-1
 359 235 l 1,23,24
 371 271 371 271 400 290.5 c 128,-1,25
 429 310 429 310 472 310 c 0,26,27
 519 310 519 310 548 286.5 c 128,-1,28
 577 263 577 263 577 225 c 0,29,30
 577 182 577 182 545.5 145.5 c 128,-1,31
 514 109 514 109 445 57 c 1,32,-1
 583 57 l 1,33,-1
 583 0 l 1,34,-1
 350 0 l 1,35,-1
 350 51 l 1,36,13
 415 98 415 98 448 125.5 c 128,-1,14
EndSplineSet
Ligature2: "'frac' Diagonal Fractions in Latin lookup 7 subtable" one slash two
EndChar
StartChar: threequarters
Encoding: 190 190 243
Width: 632
GlyphClass: 3
Flags: W
LayerCount: 2
Fore
SplineSet
478 668 m 1,0,-1
 549 668 l 1,1,-1
 184 0 l 1,2,-1
 113 0 l 1,3,-1
 478 668 l 1,0,-1
495 63 m 1,4,-1
 340 63 l 1,5,-1
 340 116 l 1,6,-1
 492 306 l 1,7,-1
 556 306 l 1,8,-1
 556 118 l 1,9,-1
 604 118 l 1,10,-1
 604 63 l 1,11,-1
 556 63 l 1,12,-1
 556 0 l 1,13,-1
 495 0 l 1,14,-1
 495 63 l 1,4,-1
496 118 m 1,15,-1
 496 227 l 1,16,-1
 494 227 l 1,17,-1
 407 118 l 1,18,-1
 496 118 l 1,15,-1
70.5 383.5 m 128,-1,20
 40 402 40 402 28 434 c 1,21,-1
 89 454 l 1,22,23
 100 415 100 415 146 415 c 0,24,25
 169 415 169 415 183 426.5 c 128,-1,26
 197 438 197 438 197 457 c 0,27,28
 197 481 197 481 178 491 c 128,-1,29
 159 501 159 501 114 500 c 1,30,-1
 114 554 l 1,31,32
 191 549 191 549 191 594 c 0,33,34
 191 611 191 611 177.5 620.5 c 128,-1,35
 164 630 164 630 145 630 c 0,36,37
 105 630 105 630 91 594 c 1,38,-1
 32 614 l 1,39,40
 44 646 44 646 74.5 663 c 128,-1,41
 105 680 105 680 149 680 c 0,42,43
 194 680 194 680 224.5 658.5 c 128,-1,44
 255 637 255 637 255 598 c 0,45,46
 255 576 255 576 243 558 c 128,-1,47
 231 540 231 540 213 531 c 1,48,49
 237 521 237 521 250 502.5 c 128,-1,50
 263 484 263 484 263 460 c 0,51,52
 263 414 263 414 229 389.5 c 128,-1,53
 195 365 195 365 144 365 c 0,54,19
 101 365 101 365 70.5 383.5 c 128,-1,20
EndSplineSet
Ligature2: "'frac' Diagonal Fractions in Latin lookup 7 subtable" three slash four
EndChar
StartChar: Aring
Encoding: 197 197 10
Width: 632
GlyphClass: 2
Flags: W
AnchorPoint: "Anchor-2" 598 10 basechar 0
AnchorPoint: "Anchor-1" 316 843 basechar 0
AnchorPoint: "Anchor-0" 316 0 basechar 0
LayerCount: 2
Fore
SplineSet
224 684 m 128,-1,1
 209 708 209 708 209 737 c 0,2,3
 209 781 209 781 240.5 812 c 128,-1,4
 272 843 272 843 316 843 c 256,5,6
 360 843 360 843 391.5 812 c 128,-1,7
 423 781 423 781 423 737 c 0,8,9
 423 709 423 709 408.5 684.5 c 128,-1,10
 394 660 394 660 370 647 c 1,11,-1
 598 0 l 1,12,-1
 513 0 l 1,13,-1
 461 153 l 1,14,-1
 169 153 l 1,15,-1
 116 0 l 1,16,-1
 34 0 l 1,17,-1
 263 647 l 1,18,0
 239 660 239 660 224 684 c 128,-1,1
438 226 m 1,19,-1
 317 577 l 1,20,-1
 313 577 l 1,21,-1
 191 226 l 1,22,-1
 438 226 l 1,19,-1
353 699.5 m 128,-1,24
 368 715 368 715 368 737 c 0,25,26
 368 758 368 758 353 773.5 c 128,-1,27
 338 789 338 789 316 789 c 256,28,29
 294 789 294 789 279 773.5 c 128,-1,30
 264 758 264 758 264 737 c 0,31,32
 264 715 264 715 279 699.5 c 128,-1,33
 294 684 294 684 316 684 c 256,34,23
 338 684 338 684 353 699.5 c 128,-1,24
EndSplineSet
EndChar
StartChar: AE
Encoding: 198 198 12
Width: 632
GlyphClass: 2
Flags: W
AnchorPoint: "Anchor-1" 324 668 basechar 0
AnchorPoint: "Anchor-0" 324 0 basechar 0
LayerCount: 2
Fore
SplineSet
260 668 m 1,0,-1
 620 668 l 1,1,-1
 620 597 l 1,2,-1
 384 597 l 1,3,-1
 384 379 l 1,4,-1
 558 379 l 1,5,-1
 558 308 l 1,6,-1
 384 308 l 1,7,-1
 384 71 l 1,8,-1
 622 71 l 1,9,-1
 622 0 l 1,10,-1
 308 0 l 1,11,-1
 308 156 l 1,12,-1
 141 156 l 1,13,-1
 82 0 l 1,14,-1
 5 0 l 1,15,-1
 260 668 l 1,0,-1
308 223 m 1,16,-1
 308 597 l 1,17,-1
 304 597 l 1,18,-1
 164 223 l 1,19,-1
 308 223 l 1,16,-1
EndSplineSet
EndChar
StartChar: Ccedilla
Encoding: 199 199 17
Width: 632
GlyphClass: 2
Flags: W
AnchorPoint: "Anchor-1" 338 668 basechar 0
LayerCount: 2
Fore
SplineSet
283 -174.5 m 128,-1,1
 260 -169 260 -169 243 -159 c 1,2,-1
 257 -127 l 1,3,4
 288 -142 288 -142 322 -142 c 0,5,6
 344 -142 344 -142 356 -131.5 c 128,-1,7
 368 -121 368 -121 368 -108 c 0,8,9
 368 -79 368 -79 328 -79 c 0,10,11
 320 -79 320 -79 305.5 -82 c 128,-1,12
 291 -85 291 -85 288 -85 c 0,13,14
 273 -85 273 -85 273 -70 c 0,15,16
 273 -63 273 -63 277 -56 c 2,17,-1
 305 -11 l 1,18,19
 229 -3 229 -3 172 43 c 128,-1,20
 115 89 115 89 84 164.5 c 128,-1,21
 53 240 53 240 53 335 c 0,22,23
 53 436 53 436 89.5 514.5 c 128,-1,24
 126 593 126 593 191 636.5 c 128,-1,25
 256 680 256 680 340 680 c 0,26,27
 417 680 417 680 480 640.5 c 128,-1,28
 543 601 543 601 575 528 c 1,29,-1
 502 500 l 1,30,31
 480 550 480 550 439 578.5 c 128,-1,32
 398 607 398 607 340 607 c 0,33,34
 285 607 285 607 240 575.5 c 128,-1,35
 195 544 195 544 168 482 c 128,-1,36
 141 420 141 420 141 335 c 0,37,38
 141 249 141 249 168 187 c 128,-1,39
 195 125 195 125 241 93 c 128,-1,40
 287 61 287 61 342 61 c 0,41,42
 399 61 399 61 441 89.5 c 128,-1,43
 483 118 483 118 506 167 c 1,44,-1
 578 140 l 1,45,46
 545 69 545 69 485.5 30.5 c 128,-1,47
 426 -8 426 -8 348 -12 c 1,48,-1
 325 -48 l 1,49,50
 342 -45 342 -45 357 -45 c 0,51,52
 387 -45 387 -45 407 -61 c 128,-1,53
 427 -77 427 -77 427 -102 c 0,54,55
 427 -133 427 -133 399 -156.5 c 128,-1,56
 371 -180 371 -180 326 -180 c 0,57,0
 306 -180 306 -180 283 -174.5 c 128,-1,1
EndSplineSet
EndChar
StartChar: Eth
Encoding: 208 208 22
Width: 632
GlyphClass: 1
Flags: W
LayerCount: 2
Fore
SplineSet
73 312 m 1,0,-1
 21 312 l 1,1,-1
 21 386 l 1,2,-1
 73 386 l 1,3,-1
 73 668 l 1,4,-1
 246 668 l 2,5,6
 408 668 408 668 500.5 589.5 c 128,-1,7
 593 511 593 511 593 335 c 256,8,9
 593 159 593 159 500.5 79.5 c 128,-1,10
 408 0 408 0 246 0 c 2,11,-1
 73 0 l 1,12,-1
 73 312 l 1,0,-1
434 128 m 128,-1,14
 507 183 507 183 507 335 c 0,15,16
 507 486 507 486 434 540.5 c 128,-1,17
 361 595 361 595 239 595 c 2,18,-1
 157 595 l 1,19,-1
 157 386 l 1,20,-1
 329 386 l 1,21,-1
 329 312 l 1,22,-1
 157 312 l 1,23,-1
 157 73 l 1,24,-1
 239 73 l 2,25,13
 361 73 361 73 434 128 c 128,-1,14
EndSplineSet
EndChar
StartChar: ccedilla
Encoding: 231 231 127
Width: 632
GlyphClass: 2
Flags: W
AnchorPoint: "Anchor-1" 347 496 basechar 0
LayerCount: 2
Fore
SplineSet
290.5 -174.5 m 128,-1,1
 268 -169 268 -169 251 -159 c 1,2,-1
 265 -127 l 1,3,4
 296 -142 296 -142 329 -142 c 0,5,6
 352 -142 352 -142 364 -132 c 128,-1,7
 376 -122 376 -122 376 -108 c 0,8,9
 376 -79 376 -79 336 -79 c 0,10,11
 329 -79 329 -79 314.5 -82 c 128,-1,12
 300 -85 300 -85 295 -85 c 0,13,14
 281 -85 281 -85 281 -71 c 0,15,16
 281 -63 281 -63 285 -56 c 2,17,-1
 313 -11 l 1,18,19
 246 -5 246 -5 196 29.5 c 128,-1,20
 146 64 146 64 119 120 c 128,-1,21
 92 176 92 176 92 246 c 0,22,23
 92 320 92 320 123 379.5 c 128,-1,24
 154 439 154 439 211.5 473 c 128,-1,25
 269 507 269 507 346 507 c 0,26,27
 416 507 416 507 469.5 477 c 128,-1,28
 523 447 523 447 553 392 c 1,29,-1
 479 365 l 1,30,31
 462 399 462 399 427.5 418 c 128,-1,32
 393 437 393 437 347 437 c 0,33,34
 302 437 302 437 264 416.5 c 128,-1,35
 226 396 226 396 202.5 353 c 128,-1,36
 179 310 179 310 179 247 c 256,37,38
 179 184 179 184 202 141.5 c 128,-1,39
 225 99 225 99 262.5 78.5 c 128,-1,40
 300 58 300 58 345 58 c 0,41,42
 391 58 391 58 428 76 c 128,-1,43
 465 94 465 94 482 126 c 1,44,-1
 556 99 l 1,45,46
 530 54 530 54 478 23 c 128,-1,47
 426 -8 426 -8 356 -12 c 1,48,-1
 333 -48 l 1,49,50
 350 -45 350 -45 364 -45 c 0,51,52
 394 -45 394 -45 414 -61 c 128,-1,53
 434 -77 434 -77 434 -102 c 0,54,55
 434 -133 434 -133 406.5 -156.5 c 128,-1,56
 379 -180 379 -180 334 -180 c 0,57,0
 313 -180 313 -180 290.5 -174.5 c 128,-1,1
EndSplineSet
EndChar
StartChar: eth
Encoding: 240 240 132
Width: 632
GlyphClass: 1
Flags: W
LayerCount: 2
Fore
SplineSet
181.5 15.5 m 128,-1,1
 125 43 125 43 90.5 96.5 c 128,-1,2
 56 150 56 150 56 224 c 0,3,4
 56 296 56 296 90 350 c 128,-1,5
 124 404 124 404 179 432.5 c 128,-1,6
 234 461 234 461 295 461 c 0,7,8
 357 461 357 461 408 433.5 c 128,-1,9
 459 406 459 406 479 358 c 1,10,11
 475 443 475 443 456.5 495.5 c 128,-1,12
 438 548 438 548 405 581 c 1,13,-1
 344 521 l 1,14,-1
 310 554 l 1,15,-1
 365 609 l 1,16,17
 334 629 334 629 289.5 642 c 128,-1,18
 245 655 245 655 192 651 c 1,19,-1
 192 721 l 1,20,21
 318 728 318 728 418 664 c 1,22,-1
 464 709 l 1,23,-1
 498 675 l 1,24,-1
 458 635 l 1,25,26
 562 534 562 534 562 323 c 0,27,28
 562 174 562 174 500.5 81 c 128,-1,29
 439 -12 439 -12 303 -12 c 0,30,0
 238 -12 238 -12 181.5 15.5 c 128,-1,1
386 76 m 128,-1,32
 423 95 423 95 445 133 c 128,-1,33
 467 171 467 171 467 223 c 0,34,35
 467 276 467 276 444.5 314 c 128,-1,36
 422 352 422 352 385 372 c 128,-1,37
 348 392 348 392 305 392 c 256,38,39
 262 392 262 392 225 372.5 c 128,-1,40
 188 353 188 353 166 315 c 128,-1,41
 144 277 144 277 144 225 c 0,42,43
 144 172 144 172 166.5 134 c 128,-1,44
 189 96 189 96 226 76.5 c 128,-1,45
 263 57 263 57 306 57 c 256,46,31
 349 57 349 57 386 76 c 128,-1,32
EndSplineSet
EndChar
StartChar: divide
Encoding: 247 247 314
Width: 632
GlyphClass: 1
Flags: W
LayerCount: 2
Fore
SplineSet
65 285 m 1,0,-1
 567 285 l 1,1,-1
 567 211 l 1,2,-1
 65 211 l 1,3,-1
 65 285 l 1,0,-1
271 34 m 128,-1,5
 252 53 252 53 252 80 c 0,6,7
 252 106 252 106 271 124.5 c 128,-1,8
 290 143 290 143 316 143 c 0,9,10
 343 143 343 143 361 124.5 c 128,-1,11
 379 106 379 106 379 80 c 0,12,13
 379 53 379 53 361 34 c 128,-1,14
 343 15 343 15 316 15 c 0,15,4
 290 15 290 15 271 34 c 128,-1,5
270.5 372 m 128,-1,17
 252 390 252 390 252 417 c 256,18,19
 252 444 252 444 271 462.5 c 128,-1,20
 290 481 290 481 316 481 c 0,21,22
 343 481 343 481 361 462.5 c 128,-1,23
 379 444 379 444 379 417 c 256,24,25
 379 390 379 390 361 372 c 128,-1,26
 343 354 343 354 316 354 c 256,27,16
 289 354 289 354 270.5 372 c 128,-1,17
EndSplineSet
EndChar
StartChar: thorn
Encoding: 254 254 183
Width: 632
GlyphClass: 2
Flags: W
AnchorPoint: "Anchor-1" 314 496 basechar 0
AnchorPoint: "Anchor-0" 314 0 basechar 0
LayerCount: 2
Fore
SplineSet
89 708 m 1,0,-1
 174 708 l 1,1,-1
 174 412 l 1,2,3
 200 456 200 456 246.5 481.5 c 128,-1,4
 293 507 293 507 349 507 c 0,5,6
 417 507 417 507 469 476 c 128,-1,7
 521 445 521 445 550 386 c 128,-1,8
 579 327 579 327 579 247 c 256,9,10
 579 167 579 167 550 108.5 c 128,-1,11
 521 50 521 50 469 19 c 128,-1,12
 417 -12 417 -12 349 -12 c 0,13,14
 292 -12 292 -12 245.5 13.5 c 128,-1,15
 199 39 199 39 174 80 c 1,16,-1
 174 -162 l 1,17,-1
 89 -162 l 1,18,-1
 89 708 l 1,0,-1
447.5 108 m 128,-1,20
 492 158 492 158 492 247 c 256,21,22
 492 336 492 336 447.5 386.5 c 128,-1,23
 403 437 403 437 330 437 c 0,24,25
 259 437 259 437 215.5 387 c 128,-1,26
 172 337 172 337 172 248 c 256,27,28
 172 159 172 159 215.5 108.5 c 128,-1,29
 259 58 259 58 330 58 c 0,30,19
 403 58 403 58 447.5 108 c 128,-1,20
EndSplineSet
EndChar
StartChar: Aogonek
Encoding: 260 260 9
Width: 632
GlyphClass: 2
Flags: W
AnchorPoint: "Anchor-1" 316 668 basechar 0
LayerCount: 2
Fore
SplineSet
270 668 m 1,0,-1
 363 668 l 1,1,-1
 598 0 l 1,2,3
 561 -10 561 -10 535.5 -32 c 128,-1,4
 510 -54 510 -54 510 -78 c 0,5,6
 510 -98 510 -98 523.5 -108 c 128,-1,7
 537 -118 537 -118 558 -118 c 0,8,9
 577 -118 577 -118 598 -110 c 1,10,-1
 598 -161 l 1,11,12
 575 -170 575 -170 541 -170 c 0,13,14
 492 -170 492 -170 465.5 -148 c 128,-1,15
 439 -126 439 -126 439 -91 c 0,16,17
 439 -33 439 -33 511 5 c 1,18,-1
 461 153 l 1,19,-1
 169 153 l 1,20,-1
 116 0 l 1,21,-1
 34 0 l 1,22,-1
 270 668 l 1,0,-1
438 226 m 1,23,-1
 317 577 l 1,24,-1
 313 577 l 1,25,-1
 191 226 l 1,26,-1
 438 226 l 1,23,-1
EndSplineSet
EndChar
StartChar: dcaron
Encoding: 271 271 130
Width: 632
GlyphClass: 1
Flags: W
LayerCount: 2
Fore
SplineSet
132.5 19.5 m 128,-1,1
 85 51 85 51 59 110 c 128,-1,2
 33 169 33 169 33 249 c 256,3,4
 33 329 33 329 59 387.5 c 128,-1,5
 85 446 85 446 132.5 476.5 c 128,-1,6
 180 507 180 507 242 507 c 0,7,8
 290 507 290 507 329 483 c 128,-1,9
 368 459 368 459 394 417 c 1,10,-1
 394 708 l 1,11,-1
 478 708 l 1,12,-1
 478 186 l 2,13,14
 478 87 478 87 494 0 c 1,15,-1
 415 0 l 1,16,-1
 394 76 l 1,17,18
 335 -12 335 -12 242 -12 c 0,19,0
 180 -12 180 -12 132.5 19.5 c 128,-1,1
358.5 108.5 m 128,-1,21
 396 159 396 159 396 248 c 256,22,23
 396 337 396 337 358.5 387 c 128,-1,24
 321 437 321 437 259 437 c 0,25,26
 195 437 195 437 157 387.5 c 128,-1,27
 119 338 119 338 119 249 c 0,28,29
 119 159 119 159 157 108.5 c 128,-1,30
 195 58 195 58 259 58 c 0,31,20
 321 58 321 58 358.5 108.5 c 128,-1,21
552.5 706.5 m 128,-1,33
 561 719 561 719 577 719 c 0,34,35
 591 719 591 719 599.5 711 c 128,-1,36
 608 703 608 703 608 687 c 0,37,38
 608 676 608 676 597 641 c 2,39,-1
 561 537 l 1,40,-1
 520 537 l 1,41,-1
 539 667 l 2,42,32
 544 694 544 694 552.5 706.5 c 128,-1,33
EndSplineSet
EndChar
StartChar: eogonek
Encoding: 281 281 141
Width: 632
GlyphClass: 2
Flags: W
AnchorPoint: "Anchor-1" 261 496 basechar 0
LayerCount: 2
Fore
SplineSet
351.5 -147.5 m 128,-1,1
 325 -125 325 -125 325 -90 c 0,2,3
 325 -45 325 -45 360 -8 c 1,4,5
 347 -10 347 -10 321 -10 c 0,6,7
 249 -10 249 -10 193.5 21 c 128,-1,8
 138 52 138 52 107 110.5 c 128,-1,9
 76 169 76 169 76 247 c 256,10,11
 76 325 76 325 108 384 c 128,-1,12
 140 443 140 443 196 475 c 128,-1,13
 252 507 252 507 322 507 c 0,14,15
 398 507 398 507 453.5 469 c 128,-1,16
 509 431 509 431 536 368.5 c 128,-1,17
 563 306 563 306 557 233 c 1,18,-1
 161 233 l 1,19,20
 164 141 164 141 214 99.5 c 128,-1,21
 264 58 264 58 330 58 c 0,22,23
 412 58 412 58 454 114 c 1,24,-1
 529 87 l 1,25,26
 500 44 500 44 450 14 c 0,27,28
 424 -3 424 -3 410 -25 c 128,-1,29
 396 -47 396 -47 396 -72 c 0,30,31
 396 -95 396 -95 411 -106.5 c 128,-1,32
 426 -118 426 -118 448 -118 c 0,33,34
 466 -118 466 -118 484 -110 c 1,35,-1
 484 -161 l 1,36,37
 461 -170 461 -170 427 -170 c 0,38,0
 378 -170 378 -170 351.5 -147.5 c 128,-1,1
455.5 363.5 m 128,-1,40
 438 397 438 397 404.5 418 c 128,-1,41
 371 439 371 439 324 439 c 0,42,43
 261 439 261 439 217 403.5 c 128,-1,44
 173 368 173 368 162 292 c 1,45,-1
 474 292 l 1,46,39
 473 330 473 330 455.5 363.5 c 128,-1,40
EndSplineSet
EndChar
StartChar: Hbar
Encoding: 294 294 38
Width: 632
GlyphClass: 1
Flags: W
LayerCount: 2
Fore
SplineSet
61 512 m 1,0,-1
 9 512 l 1,1,-1
 9 572 l 1,2,-1
 61 572 l 1,3,-1
 61 668 l 1,4,-1
 149 668 l 1,5,-1
 149 572 l 1,6,-1
 483 572 l 1,7,-1
 483 668 l 1,8,-1
 571 668 l 1,9,-1
 571 572 l 1,10,-1
 623 572 l 1,11,-1
 623 512 l 1,12,-1
 571 512 l 1,13,-1
 571 0 l 1,14,-1
 483 0 l 1,15,-1
 483 306 l 1,16,-1
 149 306 l 1,17,-1
 149 0 l 1,18,-1
 61 0 l 1,19,-1
 61 512 l 1,0,-1
483 383 m 1,20,-1
 483 512 l 1,21,-1
 149 512 l 1,22,-1
 149 383 l 1,23,-1
 483 383 l 1,20,-1
EndSplineSet
EndChar
StartChar: iogonek
Encoding: 303 303 156
Width: 632
GlyphClass: 2
Flags: W
AnchorPoint: "Anchor-1" 317 716 basechar 0
LayerCount: 2
Fore
SplineSet
110 67 m 1,0,-1
 285 67 l 1,1,-1
 285 429 l 1,2,-1
 136 429 l 1,3,-1
 136 496 l 1,4,-1
 371 496 l 1,5,-1
 371 67 l 1,6,-1
 546 67 l 1,7,-1
 546 0 l 1,8,9
 504 -12 504 -12 480.5 -33 c 128,-1,10
 457 -54 457 -54 457 -79 c 0,11,12
 457 -99 457 -99 471.5 -108.5 c 128,-1,13
 486 -118 486 -118 507 -118 c 0,14,15
 526 -118 526 -118 546 -110 c 1,16,-1
 546 -161 l 1,17,18
 522 -170 522 -170 488 -170 c 0,19,20
 439 -170 439 -170 413 -148 c 128,-1,21
 387 -126 387 -126 387 -91 c 0,22,23
 387 -62 387 -62 402.5 -40 c 128,-1,24
 418 -18 418 -18 448 0 c 1,25,-1
 110 0 l 1,26,-1
 110 67 l 1,0,-1
274 611 m 128,-1,28
 256 629 256 629 256 654 c 256,29,30
 256 679 256 679 274 697 c 128,-1,31
 292 715 292 715 317 715 c 256,32,33
 342 715 342 715 360.5 697 c 128,-1,34
 379 679 379 679 379 654 c 256,35,36
 379 629 379 629 361 611 c 128,-1,37
 343 593 343 593 317 593 c 0,38,27
 292 593 292 593 274 611 c 128,-1,28
EndSplineSet
EndChar
StartChar: ij
Encoding: 307 307 157
Width: 632
GlyphClass: 1
Flags: W
LayerCount: 2
Fore
SplineSet
295 -90 m 1,0,-1
 358 -90 l 2,1,2
 397 -90 397 -90 414 -83.5 c 128,-1,3
 431 -77 431 -77 437 -59.5 c 128,-1,4
 443 -42 443 -42 443 -4 c 2,5,-1
 443 429 l 1,6,-1
 379 429 l 1,7,-1
 379 496 l 1,8,-1
 528 496 l 1,9,-1
 528 -8 l 2,10,11
 528 -69 528 -69 515 -101 c 128,-1,12
 502 -133 502 -133 467.5 -147 c 128,-1,13
 433 -161 433 -161 366 -161 c 2,14,-1
 295 -161 l 1,15,-1
 295 -90 l 1,0,-1
148 429 m 1,16,-1
 85 429 l 1,17,-1
 85 496 l 1,18,-1
 233 496 l 1,19,-1
 233 0 l 1,20,-1
 148 0 l 1,21,-1
 148 429 l 1,16,-1
137 611 m 128,-1,23
 119 629 119 629 119 654 c 256,24,25
 119 679 119 679 137 697 c 128,-1,26
 155 715 155 715 180 715 c 256,27,28
 205 715 205 715 223 697 c 128,-1,29
 241 679 241 679 241 654 c 256,30,31
 241 629 241 629 223.5 611 c 128,-1,32
 206 593 206 593 180 593 c 0,33,22
 155 593 155 593 137 611 c 128,-1,23
432 611 m 128,-1,35
 414 629 414 629 414 654 c 256,36,37
 414 679 414 679 432 697 c 128,-1,38
 450 715 450 715 475 715 c 256,39,40
 500 715 500 715 518 697 c 128,-1,41
 536 679 536 679 536 654 c 256,42,43
 536 629 536 629 518 611 c 128,-1,44
 500 593 500 593 475 593 c 256,45,34
 450 593 450 593 432 611 c 128,-1,35
EndSplineSet
EndChar
StartChar: Lslash
Encoding: 321 321 55
Width: 632
GlyphClass: 1
Flags: W
LayerCount: 2
Fore
SplineSet
134 251 m 1,0,-1
 31 190 l 1,1,-1
 31 265 l 1,2,-1
 134 326 l 1,3,-1
 134 668 l 1,4,-1
 222 668 l 1,5,-1
 222 378 l 1,6,-1
 410 488 l 1,7,-1
 410 412 l 1,8,-1
 222 302 l 1,9,-1
 222 77 l 1,10,-1
 583 77 l 1,11,-1
 583 0 l 1,12,-1
 134 0 l 1,13,-1
 134 251 l 1,0,-1
EndSplineSet
EndChar
StartChar: OE
Encoding: 338 338 70
Width: 632
GlyphClass: 2
Flags: W
AnchorPoint: "Anchor-1" 317 668 basechar 0
AnchorPoint: "Anchor-0" 317 0 basechar 0
LayerCount: 2
Fore
SplineSet
59 80.5 m 128,-1,1
 7 173 7 173 7 334 c 256,2,3
 7 495 7 495 59 587.5 c 128,-1,4
 111 680 111 680 206 680 c 0,5,6
 294 680 294 680 343 594 c 1,7,-1
 343 668 l 1,8,-1
 618 668 l 1,9,-1
 618 597 l 1,10,-1
 417 597 l 1,11,-1
 417 379 l 1,12,-1
 560 379 l 1,13,-1
 560 308 l 1,14,-1
 417 308 l 1,15,-1
 417 71 l 1,16,-1
 621 71 l 1,17,-1
 621 0 l 1,18,-1
 343 0 l 1,19,-1
 343 73 l 1,20,21
 294 -12 294 -12 205 -12 c 0,22,0
 111 -12 111 -12 59 80.5 c 128,-1,1
308 125 m 128,-1,24
 343 194 343 194 343 334 c 0,25,26
 343 475 343 475 308 543.5 c 128,-1,27
 273 612 273 612 214 612 c 0,28,29
 156 612 156 612 121.5 543.5 c 128,-1,30
 87 475 87 475 87 334 c 256,31,32
 87 193 87 193 121.5 124.5 c 128,-1,33
 156 56 156 56 214 56 c 0,34,23
 273 56 273 56 308 125 c 128,-1,24
EndSplineSet
EndChar
StartChar: oe
Encoding: 339 339 181
Width: 632
GlyphClass: 2
Flags: W
AnchorPoint: "Anchor-1" 305 496 basechar 0
AnchorPoint: "Anchor-0" 305 0 basechar 0
LayerCount: 2
Fore
SplineSet
375 16.5 m 128,-1,1
 338 45 338 45 317 95 c 1,2,3
 295 42 295 42 258.5 15 c 128,-1,4
 222 -12 222 -12 180 -12 c 0,5,6
 134 -12 134 -12 94.5 16.5 c 128,-1,7
 55 45 55 45 31.5 103.5 c 128,-1,8
 8 162 8 162 8 248 c 0,9,10
 8 335 8 335 32 393 c 128,-1,11
 56 451 56 451 95 479 c 128,-1,12
 134 507 134 507 182 507 c 0,13,14
 227 507 227 507 264.5 479.5 c 128,-1,15
 302 452 302 452 324 398 c 1,16,17
 344 450 344 450 380 478.5 c 128,-1,18
 416 507 416 507 463 507 c 0,19,20
 542 507 542 507 585 437.5 c 128,-1,21
 628 368 628 368 628 264 c 0,22,23
 628 244 628 244 627 234 c 1,24,-1
 353 234 l 1,25,26
 353 169 353 169 370 127.5 c 128,-1,27
 387 86 387 86 412.5 68 c 128,-1,28
 438 50 438 50 466 50 c 256,29,30
 494 50 494 50 513 64 c 128,-1,31
 532 78 532 78 548 109 c 1,32,-1
 607 87 l 1,33,34
 584 41 584 41 548 14.5 c 128,-1,35
 512 -12 512 -12 464 -12 c 0,36,0
 412 -12 412 -12 375 16.5 c 128,-1,1
258.5 106 m 128,-1,38
 289 155 289 155 289 248 c 256,39,40
 289 341 289 341 258 390 c 128,-1,41
 227 439 227 439 182 439 c 256,42,43
 137 439 137 439 106.5 390 c 128,-1,44
 76 341 76 341 76 248 c 256,45,46
 76 155 76 155 106.5 106 c 128,-1,47
 137 57 137 57 182 57 c 0,48,37
 228 57 228 57 258.5 106 c 128,-1,38
530 398.5 m 128,-1,50
 506 444 506 444 459 444 c 0,51,52
 419 444 419 444 391 406.5 c 128,-1,53
 363 369 363 369 355 289 c 1,54,-1
 555 289 l 1,55,49
 554 353 554 353 530 398.5 c 128,-1,50
EndSplineSet
EndChar
StartChar: scedilla
Encoding: 351 351 191
Width: 632
GlyphClass: 2
Flags: W
AnchorPoint: "Anchor-1" 316 496 basechar 0
LayerCount: 2
Fore
SplineSet
271.5 -174.5 m 128,-1,1
 249 -169 249 -169 232 -159 c 1,2,-1
 246 -127 l 1,3,4
 277 -142 277 -142 310 -142 c 0,5,6
 333 -142 333 -142 345 -132 c 128,-1,7
 357 -122 357 -122 357 -108 c 0,8,9
 357 -79 357 -79 317 -79 c 0,10,11
 310 -79 310 -79 295.5 -82 c 128,-1,12
 281 -85 281 -85 276 -85 c 0,13,14
 262 -85 262 -85 262 -71 c 0,15,16
 262 -63 262 -63 266 -56 c 2,17,-1
 294 -11 l 1,18,19
 225 -5 225 -5 172 26.5 c 128,-1,20
 119 58 119 58 98 113 c 1,21,-1
 175 141 l 1,22,23
 187 101 187 101 226.5 78 c 128,-1,24
 266 55 266 55 324 55 c 0,25,26
 384 55 384 55 418.5 77 c 128,-1,27
 453 99 453 99 453 135 c 0,28,29
 453 169 453 169 426 186.5 c 128,-1,30
 399 204 399 204 343 216 c 2,31,-1
 261 233 l 2,32,33
 190 246 190 246 152 277.5 c 128,-1,34
 114 309 114 309 114 364 c 0,35,36
 114 430 114 430 171.5 468.5 c 128,-1,37
 229 507 229 507 316 507 c 0,38,39
 389 507 389 507 442 480.5 c 128,-1,40
 495 454 495 454 517 403 c 1,41,-1
 442 375 l 1,42,43
 430 407 430 407 396 423.5 c 128,-1,44
 362 440 362 440 314 440 c 0,45,46
 260 440 260 440 227.5 421.5 c 128,-1,47
 195 403 195 403 195 369 c 0,48,49
 195 319 195 319 284 301 c 2,50,-1
 368 284 l 2,51,52
 455 267 455 267 494.5 235 c 128,-1,53
 534 203 534 203 534 141 c 0,54,55
 534 72 534 72 479 31.5 c 128,-1,56
 424 -9 424 -9 337 -12 c 1,57,-1
 314 -48 l 1,58,59
 331 -45 331 -45 345 -45 c 0,60,61
 375 -45 375 -45 395 -61 c 128,-1,62
 415 -77 415 -77 415 -102 c 0,63,64
 415 -133 415 -133 387.5 -156.5 c 128,-1,65
 360 -180 360 -180 315 -180 c 0,66,0
 294 -180 294 -180 271.5 -174.5 c 128,-1,1
EndSplineSet
Substitution2: "'locl' Localized Forms in Latin lookup 4 subtable" uni0219
AlternateSubs2: "'aalt' Access All Alternates in Latin lookup 0 subtable" uni0219
EndChar
StartChar: Uogonek
Encoding: 370 370 94
Width: 632
GlyphClass: 2
Flags: W
AnchorPoint: "Anchor-3" 640 668 basechar 0
AnchorPoint: "Anchor-1" 316 668 basechar 0
LayerCount: 2
Fore
SplineSet
353.5 -147.5 m 128,-1,1
 327 -125 327 -125 327 -90 c 0,2,3
 327 -46 327 -46 362 -8 c 1,4,5
 345 -10 345 -10 311 -10 c 0,6,7
 206 -10 206 -10 140.5 46 c 128,-1,8
 75 102 75 102 75 248 c 2,9,-1
 75 668 l 1,10,-1
 164 668 l 1,11,-1
 164 241 l 2,12,13
 164 151 164 151 200 106 c 128,-1,14
 236 61 236 61 316 61 c 256,15,16
 396 61 396 61 432 106 c 128,-1,17
 468 151 468 151 468 241 c 2,18,-1
 468 668 l 1,19,-1
 557 668 l 1,20,-1
 557 250 l 2,21,22
 557 162 557 162 532 104.5 c 128,-1,23
 507 47 507 47 454 16 c 0,24,25
 427 0 427 0 412.5 -23 c 128,-1,26
 398 -46 398 -46 398 -72 c 0,27,28
 398 -95 398 -95 413 -106.5 c 128,-1,29
 428 -118 428 -118 449 -118 c 0,30,31
 468 -118 468 -118 486 -110 c 1,32,-1
 486 -161 l 1,33,34
 463 -170 463 -170 428 -170 c 0,35,0
 380 -170 380 -170 353.5 -147.5 c 128,-1,1
EndSplineSet
EndChar
StartChar: florin
Encoding: 402 402 286
Width: 632
GlyphClass: 1
Flags: W
LayerCount: 2
Fore
SplineSet
85 -161 m 1,1,-1
 85 -86 l 1,2,3
 113 -99 113 -99 156 -99 c 0,4,5
 214 -99 214 -99 241 -62 c 128,-1,6
 268 -25 268 -25 268 51 c 2,7,-1
 268 432 l 1,8,-1
 89 432 l 1,9,-1
 89 496 l 1,10,-1
 268 496 l 1,11,-1
 268 570 l 2,12,13
 268 624 268 624 277.5 652 c 128,-1,14
 287 680 287 680 315 692.5 c 128,-1,15
 343 705 343 705 398 705 c 2,16,-1
 545 705 l 1,17,-1
 545 636 l 1,18,-1
 399 636 l 2,19,20
 367 636 367 636 357.5 623.5 c 128,-1,21
 348 611 348 611 348 572 c 2,22,-1
 348 496 l 1,23,-1
 545 496 l 1,24,-1
 545 432 l 1,25,-1
 348 432 l 1,26,-1
 348 46 l 2,27,28
 348 -78 348 -78 298 -125 c 128,-1,29
 248 -172 248 -172 162 -172 c 0,30,0
 120 -172 120 -172 85 -161 c 1,1,-1
EndSplineSet
EndChar
StartChar: gravecomb
Encoding: 768 768 340
Width: 0
GlyphClass: 4
Flags: W
AnchorPoint: "Anchor-5" 367 706 basemark 0
AnchorPoint: "Anchor-5" 367 496 mark 0
AnchorPoint: "Anchor-1" 367 496 mark 0
LayerCount: 2
Fore
SplineSet
243 648.5 m 128,-1,1
 236 658 236 658 236 671 c 0,2,3
 236 686 236 686 246 696 c 128,-1,4
 256 706 256 706 271 706 c 0,5,6
 284 706 284 706 293.5 698.5 c 128,-1,7
 303 691 303 691 317 674 c 2,8,-1
 397 571 l 1,9,-1
 330 571 l 1,10,-1
 272 619 l 2,11,0
 250 639 250 639 243 648.5 c 128,-1,1
EndSplineSet
Substitution2: "Single Substitution lookup 12 subtable" gravecomb.case
Substitution2: "'case' Case-Sensitive Forms in Latin lookup 9 subtable" gravecomb.case
AlternateSubs2: "'aalt' Access All Alternates in Latin lookup 0 subtable" gravecomb.case
EndChar
StartChar: acutecomb
Encoding: 769 769 342
Width: 0
GlyphClass: 4
Flags: W
AnchorPoint: "Anchor-5" 266 706 basemark 0
AnchorPoint: "Anchor-5" 266 496 mark 0
AnchorPoint: "Anchor-1" 266 496 mark 0
LayerCount: 2
Fore
SplineSet
339.5 698.5 m 128,-1,1
 349 706 349 706 362 706 c 0,2,3
 377 706 377 706 387 696 c 128,-1,4
 397 686 397 686 397 671 c 0,5,6
 397 658 397 658 390 648.5 c 128,-1,7
 383 639 383 639 360 619 c 2,8,-1
 303 571 l 1,9,-1
 236 571 l 1,10,-1
 316 674 l 2,11,0
 330 691 330 691 339.5 698.5 c 128,-1,1
EndSplineSet
Substitution2: "Single Substitution lookup 12 subtable" acutecomb.case
Substitution2: "'case' Case-Sensitive Forms in Latin lookup 9 subtable" acutecomb.case
AlternateSubs2: "'aalt' Access All Alternates in Latin lookup 0 subtable" acutecomb.case
EndChar
StartChar: uni0302
Encoding: 770 770 347
Width: 0
GlyphClass: 4
Flags: W
AnchorPoint: "Anchor-5" 316 694 basemark 0
AnchorPoint: "Anchor-5" 316 496 mark 0
AnchorPoint: "Anchor-1" 316 496 mark 0
LayerCount: 2
Fore
SplineSet
317 694 m 0,1,2
 339 694 339 694 362 673 c 2,3,-1
 462 575 l 1,4,-1
 385 575 l 1,5,-1
 316 636 l 1,6,-1
 247 575 l 1,7,-1
 170 575 l 1,8,-1
 270 673 l 2,9,0
 293 694 293 694 317 694 c 0,1,2
EndSplineSet
Substitution2: "Single Substitution lookup 12 subtable" uni0302.case
Substitution2: "'case' Case-Sensitive Forms in Latin lookup 9 subtable" uni0302.case
AlternateSubs2: "'aalt' Access All Alternates in Latin lookup 0 subtable" uni0302.case
EndChar
StartChar: uni0308
Encoding: 776 776 335
Width: 0
GlyphClass: 4
Flags: W
AnchorPoint: "Anchor-5" 316 698 basemark 0
AnchorPoint: "Anchor-5" 316 496 mark 0
AnchorPoint: "Anchor-1" 316 496 mark 0
LayerCount: 2
Fore
SplineSet
365 606.5 m 128,-1,1
 349 622 349 622 349 644 c 256,2,3
 349 666 349 666 365 682 c 128,-1,4
 381 698 381 698 403 698 c 0,5,6
 426 698 426 698 441.5 682.5 c 128,-1,7
 457 667 457 667 457 644 c 0,8,9
 457 622 457 622 441 606.5 c 128,-1,10
 425 591 425 591 403 591 c 256,11,0
 381 591 381 591 365 606.5 c 128,-1,1
191 606.5 m 128,-1,13
 175 622 175 622 175 644 c 0,14,15
 175 667 175 667 191 682.5 c 128,-1,16
 207 698 207 698 229 698 c 256,17,18
 251 698 251 698 267 682 c 128,-1,19
 283 666 283 666 283 644 c 256,20,21
 283 622 283 622 267 606.5 c 128,-1,22
 251 591 251 591 229 591 c 256,23,12
 207 591 207 591 191 606.5 c 128,-1,13
EndSplineSet
Substitution2: "Single Substitution lookup 12 subtable" uni0308.case
Substitution2: "'case' Case-Sensitive Forms in Latin lookup 9 subtable" uni0308.case
AlternateSubs2: "'aalt' Access All Alternates in Latin lookup 0 subtable" uni0308.case
EndChar
StartChar: uni030B
Encoding: 779 779 344
Width: 0
GlyphClass: 4
Flags: W
AnchorPoint: "Anchor-5" 362 705 basemark 0
AnchorPoint: "Anchor-5" 271 496 mark 0
AnchorPoint: "Anchor-1" 271 496 mark 0
LayerCount: 2
Fore
SplineSet
264 697.5 m 128,-1,1
 274 705 274 705 287 705 c 0,2,3
 303 705 303 705 312 696 c 128,-1,4
 321 687 321 687 321 672 c 0,5,6
 321 660 321 660 313 649 c 128,-1,7
 305 638 305 638 283 620 c 2,8,-1
 226 571 l 1,9,-1
 163 571 l 1,10,-1
 242 674 l 2,11,0
 254 690 254 690 264 697.5 c 128,-1,1
414 697.5 m 128,-1,13
 424 705 424 705 437 705 c 0,14,15
 453 705 453 705 462 696 c 128,-1,16
 471 687 471 687 471 672 c 0,17,18
 471 660 471 660 463 649.5 c 128,-1,19
 455 639 455 639 433 620 c 2,20,-1
 376 571 l 1,21,-1
 313 571 l 1,22,-1
 391 674 l 2,23,12
 404 690 404 690 414 697.5 c 128,-1,13
EndSplineSet
Substitution2: "Single Substitution lookup 12 subtable" uni030B.case
Substitution2: "'case' Case-Sensitive Forms in Latin lookup 9 subtable" uni030B.case
AlternateSubs2: "'aalt' Access All Alternates in Latin lookup 0 subtable" uni030B.case
EndChar
StartChar: uni0326
Encoding: 806 806 359
Width: 0
GlyphClass: 4
Flags: W
AnchorPoint: "Anchor-4" 321 -240 basemark 0
AnchorPoint: "Anchor-4" 328 0 mark 0
AnchorPoint: "Anchor-0" 328 0 mark 0
LayerCount: 2
Fore
SplineSet
300 -187 m 128,-1,1
 326 -170 326 -170 326 -138 c 0,2,3
 326 -119 326 -119 313.5 -102 c 128,-1,4
 301 -85 301 -85 279 -75 c 1,5,-1
 341 -49 l 1,6,7
 369 -67 369 -67 381.5 -86.5 c 128,-1,8
 394 -106 394 -106 394 -131 c 0,9,10
 394 -177 394 -177 359.5 -206 c 128,-1,11
 325 -235 325 -235 275 -237 c 1,12,-1
 238 -206 l 1,13,0
 274 -204 274 -204 300 -187 c 128,-1,1
EndSplineSet
EndChar
StartChar: uni0327
Encoding: 807 807 360
Width: 0
GlyphClass: 4
Flags: W
AnchorPoint: "Anchor-4" 317 -181 basemark 0
AnchorPoint: "Anchor-4" 317 0 mark 0
AnchorPoint: "Anchor-0" 317 0 mark 0
LayerCount: 2
Fore
SplineSet
264.5 -174.5 m 128,-1,1
 242 -169 242 -169 225 -159 c 1,2,-1
 239 -127 l 1,3,4
 270 -142 270 -142 303 -142 c 0,5,6
 326 -142 326 -142 338 -132 c 128,-1,7
 350 -122 350 -122 350 -108 c 0,8,9
 350 -79 350 -79 310 -79 c 0,10,11
 303 -79 303 -79 288.5 -82 c 128,-1,12
 274 -85 274 -85 269 -85 c 0,13,14
 255 -85 255 -85 255 -71 c 0,15,16
 255 -63 255 -63 259 -56 c 2,17,-1
 307 21 l 1,18,-1
 340 4 l 1,19,-1
 307 -48 l 1,20,21
 324 -45 324 -45 338 -45 c 0,22,23
 368 -45 368 -45 388 -61 c 128,-1,24
 408 -77 408 -77 408 -102 c 0,25,26
 408 -133 408 -133 380.5 -156.5 c 128,-1,27
 353 -180 353 -180 308 -180 c 0,28,0
 287 -180 287 -180 264.5 -174.5 c 128,-1,1
EndSplineSet
EndChar
StartChar: uni03A9
Encoding: 937 937 226
Width: 632
GlyphClass: 1
Flags: W
LayerCount: 2
Fore
SplineSet
30 69 m 1,0,-1
 188 69 l 1,1,-1
 188 122 l 1,2,3
 117 160 117 160 75 231.5 c 128,-1,4
 33 303 33 303 33 385 c 0,5,6
 33 466 33 466 71 533.5 c 128,-1,7
 109 601 109 601 174 640.5 c 128,-1,8
 239 680 239 680 316 680 c 256,9,10
 393 680 393 680 458 640.5 c 128,-1,11
 523 601 523 601 561 533.5 c 128,-1,12
 599 466 599 466 599 385 c 0,13,14
 599 303 599 303 557 231.5 c 128,-1,15
 515 160 515 160 444 122 c 1,16,-1
 444 69 l 1,17,-1
 602 69 l 1,18,-1
 602 0 l 1,19,-1
 370 0 l 1,20,-1
 370 171 l 1,21,22
 440 191 440 191 484 250.5 c 128,-1,23
 528 310 528 310 528 386 c 0,24,25
 528 448 528 448 499.5 499.5 c 128,-1,26
 471 551 471 551 422 581 c 128,-1,27
 373 611 373 611 316 611 c 256,28,29
 259 611 259 611 210 581 c 128,-1,30
 161 551 161 551 132.5 499.5 c 128,-1,31
 104 448 104 448 104 386 c 0,32,33
 104 310 104 310 148 250.5 c 128,-1,34
 192 191 192 191 262 171 c 1,35,-1
 262 0 l 1,36,-1
 30 0 l 1,37,-1
 30 69 l 1,0,-1
EndSplineSet
EndChar
StartChar: uni03BC
Encoding: 956 956 227
Width: 632
GlyphClass: 1
Flags: W
LayerCount: 2
Fore
SplineSet
107 496 m 1,0,-1
 192 496 l 1,1,-1
 192 202 l 2,2,3
 192 133 192 133 215 95.5 c 128,-1,4
 238 58 238 58 297 58 c 0,5,6
 357 58 357 58 392 101 c 128,-1,7
 427 144 427 144 427 225 c 2,8,-1
 427 496 l 1,9,-1
 512 496 l 1,10,-1
 512 125 l 2,11,12
 512 92 512 92 521.5 81 c 128,-1,13
 531 70 531 70 560 70 c 2,14,-1
 573 70 l 1,15,-1
 573 0 l 1,16,-1
 537 0 l 2,17,18
 484 0 484 0 461 17 c 128,-1,19
 438 34 438 34 432 69 c 1,20,21
 412 33 412 33 377.5 10.5 c 128,-1,22
 343 -12 343 -12 294 -12 c 0,23,24
 259 -12 259 -12 231 -1 c 128,-1,25
 203 10 203 10 192 29 c 1,26,-1
 192 -162 l 1,27,-1
 107 -162 l 1,28,-1
 107 496 l 1,0,-1
EndSplineSet
EndChar
StartChar: quoteleft
Encoding: 8216 8216 278
Width: 632
GlyphClass: 1
Flags: W
LayerCount: 2
Fore
SplineSet
266 425 m 128,-1,1
 246 445 246 445 246 474 c 0,2,3
 246 491 246 491 253 507 c 2,4,-1
 319 677 l 1,5,-1
 378 677 l 1,6,-1
 326 543 l 1,7,8
 351 539 351 539 368 519.5 c 128,-1,9
 385 500 385 500 385 474 c 0,10,11
 385 445 385 445 364.5 425 c 128,-1,12
 344 405 344 405 315 405 c 256,13,0
 286 405 286 405 266 425 c 128,-1,1
EndSplineSet
EndChar
StartChar: daggerdbl
Encoding: 8225 8225 300
Width: 632
GlyphClass: 1
Flags: W
LayerCount: 2
Fore
SplineSet
278 172 m 1,0,-1
 87 172 l 1,1,-1
 87 249 l 1,2,-1
 278 249 l 1,3,-1
 278 418 l 1,4,-1
 87 418 l 1,5,-1
 87 496 l 1,6,-1
 278 496 l 1,7,-1
 278 668 l 1,8,-1
 355 668 l 1,9,-1
 355 496 l 1,10,-1
 545 496 l 1,11,-1
 545 418 l 1,12,-1
 355 418 l 1,13,-1
 355 249 l 1,14,-1
 545 249 l 1,15,-1
 545 172 l 1,16,-1
 355 172 l 1,17,-1
 355 0 l 1,18,-1
 278 0 l 1,19,-1
 278 172 l 1,0,-1
EndSplineSet
EndChar
StartChar: ellipsis
Encoding: 8230 8230 253
Width: 632
GlyphClass: 1
Flags: W
LayerCount: 2
Fore
SplineSet
62 7 m 128,-1,1
 43 26 43 26 43 54 c 0,2,3
 43 80 43 80 62 99.5 c 128,-1,4
 81 119 81 119 108 119 c 0,5,6
 136 119 136 119 155 100 c 128,-1,7
 174 81 174 81 174 54 c 0,8,9
 174 26 174 26 155 7 c 128,-1,10
 136 -12 136 -12 108 -12 c 0,11,0
 81 -12 81 -12 62 7 c 128,-1,1
269 7 m 128,-1,13
 250 26 250 26 250 54 c 0,14,15
 250 81 250 81 269.5 100 c 128,-1,16
 289 119 289 119 316 119 c 256,17,18
 343 119 343 119 362.5 99.5 c 128,-1,19
 382 80 382 80 382 54 c 0,20,21
 382 26 382 26 362.5 7 c 128,-1,22
 343 -12 343 -12 316 -12 c 0,23,12
 288 -12 288 -12 269 7 c 128,-1,13
477 7 m 128,-1,25
 458 26 458 26 458 54 c 0,26,27
 458 81 458 81 477.5 100 c 128,-1,28
 497 119 497 119 524 119 c 256,29,30
 551 119 551 119 570 99.5 c 128,-1,31
 589 80 589 80 589 54 c 0,32,33
 589 26 589 26 570 7 c 128,-1,34
 551 -12 551 -12 524 -12 c 0,35,24
 496 -12 496 -12 477 7 c 128,-1,25
EndSplineSet
EndChar
StartChar: trademark
Encoding: 8482 8482 294
Width: 632
GlyphClass: 1
Flags: W
LayerCount: 2
Fore
SplineSet
98 619 m 1,0,-1
 10 619 l 1,1,-1
 10 668 l 1,2,-1
 241 668 l 1,3,-1
 241 619 l 1,4,-1
 153 619 l 1,5,-1
 153 343 l 1,6,-1
 98 343 l 1,7,-1
 98 619 l 1,0,-1
285 668 m 1,8,-1
 369 668 l 1,9,-1
 452 416 l 1,10,-1
 456 416 l 1,11,-1
 538 668 l 1,12,-1
 622 668 l 1,13,-1
 622 343 l 1,14,-1
 567 343 l 1,15,-1
 567 602 l 1,16,-1
 563 602 l 1,17,-1
 478 343 l 1,18,-1
 428 343 l 1,19,-1
 341 602 l 1,20,-1
 337 602 l 1,21,-1
 337 343 l 1,22,-1
 285 343 l 1,23,-1
 285 668 l 1,8,-1
EndSplineSet
EndChar
StartChar: estimated
Encoding: 8494 8494 301
Width: 632
GlyphClass: 1
Flags: W
LayerCount: 2
Fore
SplineSet
192.5 19 m 128,-1,1
 133 50 133 50 95.5 111 c 128,-1,2
 58 172 58 172 58 257 c 0,3,4
 58 316 58 316 91 373.5 c 128,-1,5
 124 431 124 431 183 467.5 c 128,-1,6
 242 504 242 504 316 504 c 0,7,8
 386 504 386 504 445 469.5 c 128,-1,9
 504 435 504 435 538.5 376 c 128,-1,10
 573 317 573 317 573 248 c 1,11,-1
 163 248 l 1,12,-1
 163 77 l 1,13,14
 194 49 194 49 233 33.5 c 128,-1,15
 272 18 272 18 316 18 c 0,16,17
 366 18 366 18 410.5 38.5 c 128,-1,18
 455 59 455 59 486 96 c 1,19,-1
 518 87 l 1,20,21
 482 41 482 41 429.5 14.5 c 128,-1,22
 377 -12 377 -12 316 -12 c 0,23,0
 252 -12 252 -12 192.5 19 c 128,-1,1
469 277 m 1,24,-1
 469 414 l 1,25,26
 438 442 438 442 398.5 458 c 128,-1,27
 359 474 359 474 316 474 c 0,28,29
 272 474 272 474 233 458 c 128,-1,30
 194 442 194 442 163 414 c 1,31,-1
 163 277 l 1,32,-1
 469 277 l 1,24,-1
EndSplineSet
EndChar
StartChar: partialdiff
Encoding: 8706 8706 331
Width: 632
GlyphClass: 1
Flags: W
LayerCount: 2
Fore
SplineSet
201.5 15 m 128,-1,1
 147 42 147 42 113 98.5 c 128,-1,2
 79 155 79 155 79 238 c 0,3,4
 79 318 79 318 110.5 374 c 128,-1,5
 142 430 142 430 193.5 458 c 128,-1,6
 245 486 245 486 303 486 c 0,7,8
 366 486 366 486 411.5 457.5 c 128,-1,9
 457 429 457 429 476 380 c 1,10,11
 468 468 468 468 418.5 520 c 128,-1,12
 369 572 369 572 299 591.5 c 128,-1,13
 229 611 229 611 156 607 c 1,14,-1
 156 680 l 1,15,16
 368 680 368 680 460.5 574.5 c 128,-1,17
 553 469 553 469 553 284 c 0,18,19
 553 178 553 178 519 111.5 c 128,-1,20
 485 45 485 45 431.5 16.5 c 128,-1,21
 378 -12 378 -12 316 -12 c 0,22,0
 256 -12 256 -12 201.5 15 c 128,-1,1
389 78 m 128,-1,24
 423 97 423 97 444 137 c 128,-1,25
 465 177 465 177 465 237 c 0,26,27
 465 296 465 296 444 335.5 c 128,-1,28
 423 375 423 375 388.5 394.5 c 128,-1,29
 354 414 354 414 315 414 c 256,30,31
 276 414 276 414 242 394.5 c 128,-1,32
 208 375 208 375 186.5 335.5 c 128,-1,33
 165 296 165 296 165 237 c 256,34,35
 165 178 165 178 186.5 137.5 c 128,-1,36
 208 97 208 97 242 78 c 128,-1,37
 276 59 276 59 315 59 c 0,38,23
 355 59 355 59 389 78 c 128,-1,24
EndSplineSet
EndChar
StartChar: infinity
Encoding: 8734 8734 326
Width: 632
GlyphClass: 1
Flags: W
LayerCount: 2
Fore
SplineSet
51.5 147.5 m 128,-1,1
 13 189 13 189 13 256 c 256,2,3
 13 323 13 323 51.5 364.5 c 128,-1,4
 90 406 90 406 156 406 c 0,5,6
 202 406 202 406 238 382 c 128,-1,7
 274 358 274 358 316 311 c 1,8,9
 358 358 358 358 394 382 c 128,-1,10
 430 406 430 406 476 406 c 0,11,12
 542 406 542 406 580.5 364.5 c 128,-1,13
 619 323 619 323 619 256 c 256,14,15
 619 189 619 189 580.5 147.5 c 128,-1,16
 542 106 542 106 476 106 c 0,17,18
 430 106 430 106 394 130 c 128,-1,19
 358 154 358 154 316 201 c 1,20,21
 274 154 274 154 238 130 c 128,-1,22
 202 106 202 106 156 106 c 0,23,0
 90 106 90 106 51.5 147.5 c 128,-1,1
212 190 m 128,-1,25
 236 207 236 207 276 256 c 1,26,27
 236 305 236 305 212 322 c 128,-1,28
 188 339 188 339 158 339 c 0,29,30
 124 339 124 339 103 315 c 128,-1,31
 82 291 82 291 82 256 c 256,32,33
 82 221 82 221 103 197 c 128,-1,34
 124 173 124 173 158 173 c 0,35,24
 188 173 188 173 212 190 c 128,-1,25
529 197 m 128,-1,37
 550 221 550 221 550 256 c 256,38,39
 550 291 550 291 529 315 c 128,-1,40
 508 339 508 339 474 339 c 0,41,42
 444 339 444 339 420 322 c 128,-1,43
 396 305 396 305 356 256 c 1,44,45
 396 207 396 207 420 190 c 128,-1,46
 444 173 444 173 474 173 c 0,47,36
 508 173 508 173 529 197 c 128,-1,37
EndSplineSet
EndChar
StartChar: acutecomb.case
Encoding: 65544 -1 343
Width: 0
GlyphClass: 4
Flags: W
AnchorPoint: "Anchor-5" 263 863 basemark 0
AnchorPoint: "Anchor-5" 263 668 mark 0
AnchorPoint: "Anchor-1" 263 668 mark 0
LayerCount: 2
Fore
SplineSet
345 846 m 128,-1,1
 355 852 355 852 367 852 c 0,2,3
 382 852 382 852 392 843 c 128,-1,4
 402 834 402 834 402 820 c 256,5,6
 402 806 402 806 394 797.5 c 128,-1,7
 386 789 386 789 361 773 c 2,8,-1
 302 736 l 1,9,-1
 230 736 l 1,10,-1
 319 824 l 2,11,0
 335 840 335 840 345 846 c 128,-1,1
EndSplineSet
EndChar
StartChar: gravecomb.case
Encoding: 65543 -1 341
Width: 0
GlyphClass: 4
Flags: W
AnchorPoint: "Anchor-5" 369 863 basemark 0
AnchorPoint: "Anchor-5" 369 668 mark 0
AnchorPoint: "Anchor-1" 369 668 mark 0
LayerCount: 2
Fore
SplineSet
238 797.5 m 128,-1,1
 230 806 230 806 230 820 c 256,2,3
 230 834 230 834 240 843 c 128,-1,4
 250 852 250 852 265 852 c 0,5,6
 277 852 277 852 287.5 846 c 128,-1,7
 298 840 298 840 313 824 c 2,8,-1
 402 736 l 1,9,-1
 330 736 l 1,10,-1
 271 773 l 2,11,0
 246 789 246 789 238 797.5 c 128,-1,1
EndSplineSet
EndChar
StartChar: uni0307.large
Encoding: 65542 -1 339
Width: 0
GlyphClass: 4
Flags: W
AnchorPoint: "Anchor-5" 316 716 basemark 0
AnchorPoint: "Anchor-5" 316 496 mark 0
AnchorPoint: "Anchor-1" 316 496 mark 0
LayerCount: 2
Fore
SplineSet
273 611 m 128,-1,1
 255 629 255 629 255 654 c 256,2,3
 255 679 255 679 273 697 c 128,-1,4
 291 715 291 715 316 715 c 256,5,6
 341 715 341 715 359 697 c 128,-1,7
 377 679 377 679 377 654 c 256,8,9
 377 629 377 629 359.5 611 c 128,-1,10
 342 593 342 593 316 593 c 0,11,0
 291 593 291 593 273 611 c 128,-1,1
EndSplineSet
EndChar
StartChar: uni030A.case
Encoding: 65550 -1 354
Width: 0
GlyphClass: 4
Flags: W
AnchorPoint: "Anchor-5" 316 843 basemark 0
AnchorPoint: "Anchor-5" 316 668 mark 0
AnchorPoint: "Anchor-1" 316 668 mark 0
LayerCount: 2
Fore
SplineSet
240.5 661.5 m 128,-1,1
 209 693 209 693 209 737 c 256,2,3
 209 781 209 781 240.5 812 c 128,-1,4
 272 843 272 843 316 843 c 256,5,6
 360 843 360 843 391.5 812 c 128,-1,7
 423 781 423 781 423 737 c 256,8,9
 423 693 423 693 391.5 661.5 c 128,-1,10
 360 630 360 630 316 630 c 256,11,0
 272 630 272 630 240.5 661.5 c 128,-1,1
353 699.5 m 128,-1,13
 368 715 368 715 368 737 c 0,14,15
 368 758 368 758 353 773.5 c 128,-1,16
 338 789 338 789 316 789 c 256,17,18
 294 789 294 789 279 773.5 c 128,-1,19
 264 758 264 758 264 737 c 0,20,21
 264 715 264 715 279 699.5 c 128,-1,22
 294 684 294 684 316 684 c 256,23,12
 338 684 338 684 353 699.5 c 128,-1,13
EndSplineSet
EndChar
StartChar: uni030C.alt
Encoding: 65546 -1 346
Width: 0
GlyphClass: 4
Flags: W
AnchorPoint: "Anchor-3" 247 496 mark 0
LayerCount: 2
Fore
SplineSet
301.5 705.5 m 128,-1,1
 311 718 311 718 329 718 c 0,2,3
 345 718 345 718 355.5 709 c 128,-1,4
 366 700 366 700 366 684 c 0,5,6
 366 673 366 673 353 640 c 2,7,-1
 315 535 l 1,8,-1
 267 535 l 1,9,-1
 288 667 l 2,10,0
 292 693 292 693 301.5 705.5 c 128,-1,1
EndSplineSet
EndChar
StartChar: uni0328.alt
Encoding: 65553 -1 362
Width: 0
GlyphClass: 4
Flags: W
AnchorPoint: "Anchor-2" 396 10 mark 0
LayerCount: 2
Fore
SplineSet
263 -147.5 m 128,-1,1
 237 -125 237 -125 237 -90 c 0,2,3
 237 -50 237 -50 266 -17.5 c 128,-1,4
 295 15 295 15 339 31 c 1,5,-1
 380 28 l 1,6,7
 346 8 346 8 326.5 -17.5 c 128,-1,8
 307 -43 307 -43 307 -72 c 0,9,10
 307 -95 307 -95 322.5 -106.5 c 128,-1,11
 338 -118 338 -118 359 -118 c 0,12,13
 378 -118 378 -118 396 -110 c 1,14,-1
 396 -161 l 1,15,16
 372 -170 372 -170 338 -170 c 0,17,0
 289 -170 289 -170 263 -147.5 c 128,-1,1
EndSplineSet
EndChar
StartChar: zero.zero
Encoding: 65539 -1 239
Width: 632
GlyphClass: 1
Flags: W
LayerCount: 2
Fore
SplineSet
122.5 77.5 m 128,-1,1
 53 168 53 168 53 335 c 256,2,3
 53 502 53 502 122.5 592 c 128,-1,4
 192 682 192 682 316 682 c 256,5,6
 440 682 440 682 509.5 592 c 128,-1,7
 579 502 579 502 579 335 c 256,8,9
 579 168 579 168 509.5 77.5 c 128,-1,10
 440 -13 440 -13 316 -13 c 256,11,0
 192 -13 192 -13 122.5 77.5 c 128,-1,1
445.5 123.5 m 128,-1,13
 493 191 493 191 493 335 c 0,14,15
 493 469 493 469 446 541.5 c 128,-1,16
 399 614 399 614 316 614 c 256,17,18
 233 614 233 614 186 541.5 c 128,-1,19
 139 469 139 469 139 335 c 0,20,21
 139 191 139 191 187 123.5 c 128,-1,22
 235 56 235 56 316 56 c 0,23,12
 398 56 398 56 445.5 123.5 c 128,-1,13
273 291 m 128,-1,25
 255 309 255 309 255 335 c 256,26,27
 255 361 255 361 273 378.5 c 128,-1,28
 291 396 291 396 316 396 c 0,29,30
 342 396 342 396 359.5 378.5 c 128,-1,31
 377 361 377 361 377 335 c 256,32,33
 377 309 377 309 359 291 c 128,-1,34
 341 273 341 273 316 273 c 256,35,24
 291 273 291 273 273 291 c 128,-1,25
EndSplineSet
EndChar
